<svg height="512" viewBox="0 0 512 512" width="512" xmlns="http://www.w3.org/2000/svg"><circle cx="256" cy="256" fill="#ff9e80" r="256"/><path d="m426.4 64.974a255.094 255.094 0 0 1 21.6 103.026c0 141.385-114.615 256-256 256a255.026 255.026 0 0 1 -170.4-64.974c39.644 90.074 129.67 152.974 234.4 152.974 141.385 0 256-114.615 256-256a255.348 255.348 0 0 0 -85.6-191.026z" fill="#ff8b6c"/><path d="m352 464a96 96 0 0 0 -192 0v29.372a256.684 256.684 0 0 0 192 0z" fill="#ffd740"/><path d="m256 416a32.036 32.036 0 0 1 -32-32v-32h64v32a32.036 32.036 0 0 1 -32 32z" fill="#f4c2b5"/><path d="m325.1 397.427a136.169 136.169 0 0 1 -165.1 76.59v19.355a256.684 256.684 0 0 0 192 0v-29.372a95.671 95.671 0 0 0 -26.9-66.573z" fill="#ffc400"/><path d="m440 232h-368v-16c0-101.458 82.542-184 184-184s184 82.542 184 184z" fill="#525252"/><path d="m68 357.1a11.992 11.992 0 0 1 -12-12v-49.1c0-29.648 29.068-48 56-48h8v56c0 19.788-24.924 38.871-45.833 51.395a12.011 12.011 0 0 1 -6.167 1.705z" fill="#525252"/><path d="m112 248a61.507 61.507 0 0 0 -8.087.548c.051 1.145.087 2.294.087 3.452a76.008 76.008 0 0 1 -48 70.652v22.448a12 12 0 0 0 18.166 10.3c20.91-12.529 45.834-31.612 45.834-51.4v-56z" fill="#3f3f3f"/><path d="m92 288a28.032 28.032 0 0 1 -28-28v-16a28 28 0 0 1 56 0v16a28.032 28.032 0 0 1 -28 28z" fill="#e56161"/><path d="m103.619 218.534a39.955 39.955 0 0 1 -39.33 45.459 28 28 0 0 0 55.711-3.993v-16a28.034 28.034 0 0 0 -16.381-25.466z" fill="#d65858"/><path d="m355.916 61.564c-19.316 97.181-105.058 170.436-207.916 170.436h292v-16a184 184 0 0 0 -84.084-154.436z" fill="#3f3f3f"/><path d="m444 357.1a12 12 0 0 1 -6.168-1.7c-20.908-12.529-45.832-31.612-45.832-51.4v-56h8c26.932 0 56 18.352 56 48v49.1a11.992 11.992 0 0 1 -12 12z" fill="#525252"/><path d="m416 252c0-.628.032-1.249.047-1.874a63.143 63.143 0 0 0 -16.047-2.126h-8v56c0 19.788 24.924 38.871 45.833 51.395a12 12 0 0 0 18.167-10.295v-26.157a75.982 75.982 0 0 1 -40-66.943z" fill="#3f3f3f"/><path d="m420 288a28.032 28.032 0 0 1 -28-28v-16a28 28 0 0 1 56 0v16a28.032 28.032 0 0 1 -28 28z" fill="#e56161"/><path d="m408.671 218.534a39.948 39.948 0 0 0 39.329 45.459 28 28 0 0 1 -55.711-3.993v-16a28.033 28.033 0 0 1 16.382-25.466z" fill="#d65858"/><path d="m340 368h-168a68.077 68.077 0 0 1 -68-68v-84c0-19.475 8.767-45.262 22.335-65.694 16.404-24.706 36.883-38.306 57.665-38.306h8v8a40.045 40.045 0 0 0 40 40h112c32.726 0 48.467 15.21 55.91 27.969a60.987 60.987 0 0 1 8.09 28.031v84a68.077 68.077 0 0 1 -68 68z" fill="#ffe7de"/><circle cx="204" cy="412" fill="#ffe7a4" r="12"/><path d="m208 440a8 8 0 0 0 -8 8v57.84q7.913 1.766 16 3.042v-60.882a8 8 0 0 0 -8-8z" fill="#f2b200"/><path d="m304 440a8 8 0 0 0 -8 8v60.882q8.088-1.269 16-3.042v-57.84a8 8 0 0 0 -8-8z" fill="#f2b200"/><circle cx="168" cy="264" fill="#525252" r="24"/><circle cx="344" cy="264" fill="#525252" r="24"/><path d="m183.915 246.057c.051.641.085 1.288.085 1.943a23.983 23.983 0 0 1 -39.915 17.943 24 24 0 1 0 39.83-19.886z" fill="#3f3f3f"/><path d="m359.915 246.057c.051.641.085 1.288.085 1.943a23.983 23.983 0 0 1 -39.915 17.943 24 24 0 1 0 39.83-19.886z" fill="#3f3f3f"/><circle cx="160" cy="256" fill="#fff" r="8"/><circle cx="336" cy="256" fill="#fff" r="8"/><path d="m172 368h168a68.089 68.089 0 0 0 67.884-64h.116v-94.159a1 1 0 0 0 -1.921-.372c-37.126 92.895-127.931 158.531-234.079 158.531z" fill="#f9d8cd"/><circle cx="140" cy="300" fill="#fff5f2" r="12"/><circle cx="80" cy="232" fill="#f29c9c" r="8"/><circle cx="432" cy="232" fill="#f29c9c" r="8"/><circle cx="372" cy="300" fill="#fff5f2" r="12"/><path d="m144.006 232a8 8 0 0 1 -3.584-15.157 84.206 84.206 0 0 1 37.467-8.843h14.111a8 8 0 0 1 0 16h-14.111a68.118 68.118 0 0 0 -30.311 7.155 7.973 7.973 0 0 1 -3.572.845z" fill="#525252"/><path d="m367.994 232a7.976 7.976 0 0 1 -3.572-.847 68.118 68.118 0 0 0 -30.311-7.153h-14.111a8 8 0 0 1 0-16h14.111a84.206 84.206 0 0 1 37.467 8.845 8 8 0 0 1 -3.584 15.155z" fill="#525252"/><path d="m256 312.027a51.2 51.2 0 0 1 -28.437-8.637 8 8 0 1 1 8.875-13.313 35.176 35.176 0 0 0 39.125 0 8 8 0 0 1 8.875 13.313 51.2 51.2 0 0 1 -28.438 8.637z" fill="#f4c2b5"/><circle cx="224" cy="80" fill="#848484" r="16"/><circle cx="260" cy="108" fill="#848484" r="12"/><path d="m184 112h8v-32a8 8 0 0 0 -16 0v32.675a48.264 48.264 0 0 1 8-.675z" fill="#262626"/></svg>