<svg height="512" viewBox="0 0 512 512" width="512" xmlns="http://www.w3.org/2000/svg"><circle cx="256" cy="256" fill="#ff9e80" r="256"/><path d="m426.4 64.974a255.094 255.094 0 0 1 21.6 103.026c0 141.385-114.615 256-256 256a255.026 255.026 0 0 1 -170.4-64.974c39.644 90.074 129.67 152.974 234.4 152.974 141.385 0 256-114.615 256-256a255.348 255.348 0 0 0 -85.6-191.026z" fill="#ff8b6c"/><path d="m448 224c0-105.869-86.131-192-192-192s-192 86.131-192 192v201.307a255.959 255.959 0 0 0 384 0z" fill="#3f3f3f"/><path d="m309 39.443a247 247 0 0 1 59 160.557c0 136.967-111.033 248-248 248a249.941 249.941 0 0 1 -36.233-2.643 255.923 255.923 0 0 0 364.233-20.05v-201.307c0-87.492-58.827-161.5-139-184.557z" fill="#262626"/><path d="m104 424a8 8 0 0 1 -8-8v-56a8 8 0 0 1 16 0v56a8 8 0 0 1 -8 8z" fill="#262626"/><path d="m136 448a8 8 0 0 1 -8-8v-56a8 8 0 0 1 16 0v56a8 8 0 0 1 -8 8z" fill="#262626"/><path d="m408 424a8 8 0 0 1 -8-8v-56a8 8 0 0 1 16 0v56a8 8 0 0 1 -8 8z" fill="#3f3f3f"/><path d="m376 448a8 8 0 0 1 -8-8v-56a8 8 0 0 1 16 0v56a8 8 0 0 1 -8 8z" fill="#3f3f3f"/><path d="m352 464a96 96 0 0 0 -192 0v29.372a256.684 256.684 0 0 0 192 0z" fill="#ce93d8"/><path d="m256 416a32.036 32.036 0 0 1 -32-32v-32h64v32a32.036 32.036 0 0 1 -32 32z" fill="#f4c2b5"/><path d="m325.1 397.427a136.169 136.169 0 0 1 -165.1 76.59v19.355a256.684 256.684 0 0 0 192 0v-29.372a95.671 95.671 0 0 0 -26.9-66.573z" fill="#c087cc"/><circle cx="204" cy="412" fill="#e2b9ea" r="12"/><path d="m208 440a8 8 0 0 0 -8 8v57.84q7.913 1.766 16 3.042v-60.882a8 8 0 0 0 -8-8z" fill="#ba68c8"/><path d="m304 440a8 8 0 0 0 -8 8v60.882q8.088-1.269 16-3.042v-57.84a8 8 0 0 0 -8-8z" fill="#ba68c8"/><path d="m120 176h272a16 16 0 0 1 16 16v16a48 48 0 0 1 0 96h-.116a68.09 68.09 0 0 1 -67.884 64h-168a68.09 68.09 0 0 1 -67.884-64h-.116a48 48 0 0 1 0-96v-16a16 16 0 0 1 16-16z" fill="#ffe7de"/><path d="m401.471 192h-290.942a6.529 6.529 0 0 1 -6.529-6.529c0-84.019 67.55-153.236 151.569-153.471s152.431 68.043 152.431 152v1.471a6.529 6.529 0 0 1 -6.529 6.529z" fill="#525252"/><circle cx="168" cy="264" fill="#525252" r="24"/><circle cx="344" cy="264" fill="#525252" r="24"/><path d="m183.915 246.057c.051.641.085 1.288.085 1.943a23.983 23.983 0 0 1 -39.915 17.943 24 24 0 1 0 39.83-19.886z" fill="#3f3f3f"/><path d="m359.915 246.057c.051.641.085 1.288.085 1.943a23.983 23.983 0 0 1 -39.915 17.943 24 24 0 1 0 39.83-19.886z" fill="#3f3f3f"/><circle cx="160" cy="256" fill="#fff" r="8"/><circle cx="336" cy="256" fill="#fff" r="8"/><path d="m408 208v-3.49c-35.837 95.509-127.973 163.49-236 163.49h168a68.089 68.089 0 0 0 67.884-64h.116a48 48 0 0 0 0-96z" fill="#f9d8cd"/><path d="m96 272a8 8 0 1 1 8-8 8.011 8.011 0 0 1 -8 8zm8-64v23.716a8.189 8.189 0 0 1 -7.45 8.265 8.009 8.009 0 0 1 -8.55-7.981v-8a16 16 0 0 1 16-16z" fill="#f4c2b5"/><path d="m416 272a8 8 0 1 1 8-8 8.011 8.011 0 0 1 -8 8zm8-48v7.716a8.189 8.189 0 0 1 -7.45 8.265 8.009 8.009 0 0 1 -8.55-7.981v-24a16 16 0 0 1 16 16z" fill="#f4c2b5"/><circle cx="140" cy="300" fill="#fff5f2" r="12"/><circle cx="180" cy="76" fill="#848484" r="12"/><circle cx="372" cy="300" fill="#fff5f2" r="12"/><path d="m144.006 232a8 8 0 0 1 -3.584-15.157 84.206 84.206 0 0 1 37.467-8.843h14.111a8 8 0 0 1 0 16h-14.111a68.118 68.118 0 0 0 -30.311 7.155 7.973 7.973 0 0 1 -3.572.845z" fill="#525252"/><path d="m367.994 232a7.976 7.976 0 0 1 -3.572-.847 68.118 68.118 0 0 0 -30.311-7.153h-14.111a8 8 0 0 1 0-16h14.111a84.206 84.206 0 0 1 37.467 8.845 8 8 0 0 1 -3.584 15.155z" fill="#525252"/><path d="m256 312.027a51.2 51.2 0 0 1 -28.437-8.637 8 8 0 1 1 8.875-13.313 35.176 35.176 0 0 0 39.125 0 8 8 0 0 1 8.875 13.313 51.2 51.2 0 0 1 -28.438 8.637z" fill="#f4c2b5"/><path d="m294.794 37.026a148.209 148.209 0 0 1 -88.341 154.974h195.018a6.529 6.529 0 0 0 6.529-6.529v-1.471c0-70.41-48.125-129.781-113.206-146.974z" fill="#3f3f3f"/><g fill="#262626"><path d="m175.732 104.537a8 8 0 0 0 -10.345 4.581c-8.758 22.676-13.387 48.57-13.387 74.882a8 8 0 0 0 16 0c0-24.361 4.258-48.262 12.313-69.118a8 8 0 0 0 -4.581-10.345z"/><path d="m211.71 127.729a7.456 7.456 0 0 0 -.95-.059 8 8 0 0 0 -.93 15.939 7.455 7.455 0 0 0 .95.061 8 8 0 0 0 .93-15.941z"/><path d="m256 80a8 8 0 0 0 -8 8v96a8 8 0 0 0 16 0v-96a8 8 0 0 0 -8-8z"/><path d="m297.7 112.107a8 8 0 0 0 -6.587 9.2 385.825 385.825 0 0 1 4.887 62.693 8 8 0 0 0 16 0 401.782 401.782 0 0 0 -5.1-65.306 8 8 0 0 0 -9.2-6.587z"/><path d="m357.32 149.42a8 8 0 0 0 -15.81 2.5 206.313 206.313 0 0 1 2.49 32.08 8 8 0 0 0 16 0 222.4 222.4 0 0 0 -2.68-34.58z"/><path d="m335.9 86.42a137.941 137.941 0 0 0 -15.64-22.18 108.092 108.092 0 0 0 -18.83-17.15 84.573 84.573 0 0 0 -21.6-11.12 73.954 73.954 0 0 0 -23.77-3.97h-.11a27.526 27.526 0 0 0 -16.91 6.26c-6.8 5.33-12.76 13.57-18.21 25.2-4.98 10.729-9.22 23.82-12.58 38.92a7.99 7.99 0 0 0 6.07 9.55 8.506 8.506 0 0 0 1.74.19 8.11 8.11 0 0 0 4.97-1.73 8.016 8.016 0 0 0 2.83-4.531c4.05-18.25 9.72-33.92 15.98-44.13a39.9 39.9 0 0 1 9.01-10.83c2.56-1.96 4.83-2.879 7.15-2.9 12.58.01 24.76 4.1 36.21 12.17 11.26 7.931 21.56 19.761 29.79 34.181a8 8 0 1 0 13.9-7.93z"/><path d="m344.42 127.189a8 8 0 0 0 -2.53-15.589 8 8 0 0 0 -7.59 10.53v.01a7.982 7.982 0 0 0 7.59 5.46 7.77 7.77 0 0 0 2.53-.411z"/></g></svg>