<svg height="512" viewBox="0 0 512 512" width="512" xmlns="http://www.w3.org/2000/svg"><circle cx="256" cy="256" fill="#ff9e80" r="256"/><path d="m426.4 64.974a255.094 255.094 0 0 1 21.6 103.026c0 141.385-114.615 256-256 256a255.026 255.026 0 0 1 -170.4-64.974c39.644 90.074 129.67 152.974 234.4 152.974 141.385 0 256-114.615 256-256a255.348 255.348 0 0 0 -85.6-191.026z" fill="#ff8b6c"/><path d="m352 464a96 96 0 0 0 -192 0v29.372a256.684 256.684 0 0 0 192 0z" fill="#e56161"/><path d="m256 416a32.036 32.036 0 0 1 -32-32v-32h64v32a32.036 32.036 0 0 1 -32 32z" fill="#f4c2b5"/><path d="m325.1 397.427a136.169 136.169 0 0 1 -165.1 76.59v19.355a256.684 256.684 0 0 0 192 0v-29.372a95.671 95.671 0 0 0 -26.9-66.573z" fill="#d65858"/><circle cx="204" cy="412" fill="#f29c9c" r="12"/><path d="m208 440a8 8 0 0 0 -8 8v57.84q7.913 1.766 16 3.042v-60.882a8 8 0 0 0 -8-8z" fill="#bf4b4b"/><path d="m304 440a8 8 0 0 0 -8 8v60.882q8.088-1.269 16-3.042v-57.84a8 8 0 0 0 -8-8z" fill="#bf4b4b"/><path d="m340 368h-168a68.09 68.09 0 0 1 -67.884-64h-.116a48 48 0 0 1 0-96h8a89.015 89.015 0 0 0 51.781-16.452 84.673 84.673 0 0 1 92.219-3.628 84.673 84.673 0 0 1 92.219 3.628 89.017 89.017 0 0 0 51.781 16.452h8a48 48 0 0 1 0 96h-.116a68.089 68.089 0 0 1 -67.884 64z" fill="#ffe7de"/><circle cx="168" cy="264" fill="#525252" r="24"/><circle cx="344" cy="264" fill="#525252" r="24"/><path d="m183.915 246.057c.051.641.085 1.288.085 1.943a23.983 23.983 0 0 1 -39.915 17.943 24 24 0 1 0 39.83-19.886z" fill="#3f3f3f"/><path d="m359.915 246.057c.051.641.085 1.288.085 1.943a23.983 23.983 0 0 1 -39.915 17.943 24 24 0 1 0 39.83-19.886z" fill="#3f3f3f"/><circle cx="160" cy="256" fill="#fff" r="8"/><circle cx="336" cy="256" fill="#fff" r="8"/><path d="m408 208v-3.49c-35.837 95.509-127.973 163.49-236 163.49h168a68.089 68.089 0 0 0 67.884-64h.116a48 48 0 0 0 0-96z" fill="#f9d8cd"/><path d="m96 272a8 8 0 1 1 8-8 8.011 8.011 0 0 1 -8 8zm8-64v23.716a8.189 8.189 0 0 1 -7.45 8.265 8.009 8.009 0 0 1 -8.55-7.981v-8a16 16 0 0 1 16-16z" fill="#f4c2b5"/><path d="m416 272a8 8 0 1 1 8-8 8.011 8.011 0 0 1 -8 8zm8-48v7.716a8.189 8.189 0 0 1 -7.45 8.265 8.009 8.009 0 0 1 -8.55-7.981v-24a16 16 0 0 1 16 16z" fill="#f4c2b5"/><circle cx="140" cy="300" fill="#fff5f2" r="12"/><circle cx="372" cy="300" fill="#fff5f2" r="12"/><path d="m256 312.027a51.2 51.2 0 0 1 -28.437-8.637 8 8 0 1 1 8.875-13.313 35.176 35.176 0 0 0 39.125 0 8 8 0 0 1 8.875 13.313 51.2 51.2 0 0 1 -28.438 8.637z" fill="#f4c2b5"/><circle cx="160" cy="128" fill="#c0694e" r="64"/><circle cx="352" cy="128" fill="#c0694e" r="64"/><path d="m183.912 68.652q.088 1.663.088 3.348a63.964 63.964 0 0 1 -87.912 59.348 64 64 0 1 0 87.824-62.7z" fill="#ae583e"/><path d="m375.912 68.652q.088 1.663.088 3.348a63.964 63.964 0 0 1 -87.912 59.348 64 64 0 1 0 87.824-62.7z" fill="#ae583e"/><path d="m408 216a8 8 0 0 1 -8 8 104.94 104.94 0 0 1 -61.035-19.4 68.652 68.652 0 0 0 -78.438-.587l-4.527 3.108-4.527-3.107a68.65 68.65 0 0 0 -78.437.587 104.945 104.945 0 0 1 -61.036 19.399 8 8 0 0 1 -8-8v-2.815c0-55.335 45.273-101.513 100.607-101.185a99.428 99.428 0 0 1 51.393 14.573 99.421 99.421 0 0 1 51.4-14.573c55.327-.323 100.6 45.855 100.6 101.183z" fill="#c97e67"/><path d="m376.925 140.219a96.274 96.274 0 0 1 -57.9 54.655 68.188 68.188 0 0 1 19.942 9.727 104.94 104.94 0 0 0 61.033 19.399 8 8 0 0 0 8-8v-2.815a101.645 101.645 0 0 0 -31.075-72.966z" fill="#c0694e"/><path d="m214.76 112.573a96.08 96.08 0 0 1 -28.144 84.546 68.745 68.745 0 0 1 64.857 6.9l4.527 3.102v-80.548a99.246 99.246 0 0 0 -41.24-14z" fill="#c0694e"/><g fill="#e8beb3"><circle cx="140" cy="92" r="12"/><circle cx="332" cy="92" r="12"/><circle cx="168" cy="144" r="16"/><circle cx="288" cy="144" r="16"/></g></svg>