<svg height="512" viewBox="0 0 512 512" width="512" xmlns="http://www.w3.org/2000/svg"><circle cx="256" cy="256" fill="#ff9e80" r="256"/><path d="m426.4 64.974a255.094 255.094 0 0 1 21.6 103.026c0 141.385-114.615 256-256 256a255.026 255.026 0 0 1 -170.4-64.974c39.644 90.074 129.67 152.974 234.4 152.974 141.385 0 256-114.615 256-256a255.348 255.348 0 0 0 -85.6-191.026z" fill="#ff8b6c"/><path d="m352 464a96 96 0 0 0 -192 0v29.372a256.684 256.684 0 0 0 192 0z" fill="#0277bd"/><path d="m256 416a32.036 32.036 0 0 1 -32-32v-32h64v32a32.036 32.036 0 0 1 -32 32z" fill="#f4c2b5"/><path d="m325.1 397.427a136.169 136.169 0 0 1 -165.1 76.59v19.355a256.684 256.684 0 0 0 192 0v-29.372a95.671 95.671 0 0 0 -26.9-66.573z" fill="#0469bc"/><circle cx="204" cy="412" fill="#4baee0" r="12"/><path d="m208 440a8 8 0 0 0 -8 8v57.84q7.913 1.766 16 3.042v-60.882a8 8 0 0 0 -8-8z" fill="#01579b"/><path d="m304 440a8 8 0 0 0 -8 8v60.882q8.088-1.269 16-3.042v-57.84a8 8 0 0 0 -8-8z" fill="#01579b"/><path d="m336 120h-160v-8a80 80 0 0 1 160 0z" fill="#3f3f3f"/><path d="m283.186 36.763a88.032 88.032 0 0 1 -83.186 59.237 88.189 88.189 0 0 1 -21.767-2.715 79.871 79.871 0 0 0 -2.233 18.715v8h160v-8a80.134 80.134 0 0 0 -52.814-75.237z" fill="#262626"/><path d="m448 256h-384v-8c0-97.047 78.953-176 176-176h32c97.047 0 176 78.953 176 176z" fill="#525252"/><path d="m220 256h228v-8c0-71.666-43.061-133.456-104.663-160.879a125.405 125.405 0 0 1 .663 12.879 124 124 0 0 1 -124 124z" fill="#3f3f3f"/><path d="m340 368h-168a68.089 68.089 0 0 1 -67.884-64h-.116a48 48 0 0 1 0-96h.408c2.3-22.227 14.307-41.324 35.06-55.593a118.172 118.172 0 0 1 34.592-16.168l5.153-1.289 3.187 4.25c.085.11 12 15.258 44.486 30.251 30.194 13.937 84.737 30.549 173.114 30.549a8 8 0 0 1 8 8 48 48 0 0 1 0 96h-.116a68.089 68.089 0 0 1 -67.884 64z" fill="#ffe7de"/><circle cx="168" cy="264" fill="#525252" r="24"/><circle cx="344" cy="264" fill="#525252" r="24"/><path d="m183.915 246.057c.051.641.085 1.288.085 1.943a23.983 23.983 0 0 1 -39.915 17.943 24 24 0 1 0 39.83-19.886z" fill="#3f3f3f"/><path d="m359.915 246.057c.051.641.085 1.288.085 1.943a23.983 23.983 0 0 1 -39.915 17.943 24 24 0 1 0 39.83-19.886z" fill="#3f3f3f"/><circle cx="160" cy="256" fill="#fff" r="8"/><circle cx="336" cy="256" fill="#fff" r="8"/><path d="m408 208v-3.49c-35.837 95.509-127.973 163.49-236 163.49h168a68.089 68.089 0 0 0 67.884-64h.116a48 48 0 0 0 0-96z" fill="#f9d8cd"/><path d="m96 272a8 8 0 1 1 8-8 8.011 8.011 0 0 1 -8 8zm8-64v23.716a8.189 8.189 0 0 1 -7.45 8.265 8.009 8.009 0 0 1 -8.55-7.981v-8a16 16 0 0 1 16-16z" fill="#f4c2b5"/><path d="m416 272a8 8 0 1 1 8-8 8.011 8.011 0 0 1 -8 8zm8-48v7.716a8.189 8.189 0 0 1 -7.45 8.265 8.009 8.009 0 0 1 -8.55-7.981v-24a16 16 0 0 1 16 16z" fill="#f4c2b5"/><circle cx="140" cy="300" fill="#fff5f2" r="12"/><circle cx="372" cy="300" fill="#fff5f2" r="12"/><path d="m256 312.027a51.2 51.2 0 0 1 -28.438-8.637 8 8 0 0 1 8.875-13.313 35.176 35.176 0 0 0 39.125 0 8 8 0 0 1 8.875 13.313 51.2 51.2 0 0 1 -28.437 8.637z" fill="#f4c2b5"/><circle cx="232" cy="120" fill="#848484" r="24"/><circle cx="276" cy="148" fill="#848484" r="12"/><path d="m112 416a8 8 0 0 1 -8-8v-240a8 8 0 0 1 16 0v240a8 8 0 0 1 -8 8z" fill="#525252"/><path d="m400 416a8 8 0 0 1 -8-8v-240a8 8 0 0 1 16 0v240a8 8 0 0 1 -8 8z" fill="#3f3f3f"/></svg>