<svg height="512" viewBox="0 0 512 512" width="512" xmlns="http://www.w3.org/2000/svg"><circle cx="256" cy="256" fill="#ff9e80" r="256"/><path d="m426.4 64.974a255.094 255.094 0 0 1 21.6 103.026c0 141.385-114.615 256-256 256a255.026 255.026 0 0 1 -170.4-64.974c39.644 90.074 129.67 152.974 234.4 152.974 141.385 0 256-114.615 256-256a255.348 255.348 0 0 0 -85.6-191.026z" fill="#ff8b6c"/><path d="m448 232c0-105.869-86.131-192-192-192s-192 86.131-192 192v193.307a255.959 255.959 0 0 0 384 0z" fill="#ffd740"/><path d="m171 168a8 8 0 0 1 -8-8v-72a8 8 0 0 1 16 0v72a8 8 0 0 1 -8 8z" fill="#f2b200"/><path d="m355.605 67.912a235.143 235.143 0 0 1 20.395 96.088c0 130.339-105.661 236-236 236a235.71 235.71 0 0 1 -76-12.508v37.815a255.959 255.959 0 0 0 384 0v-193.307a192.07 192.07 0 0 0 -92.395-164.088z" fill="#ffc400"/><path d="m352 464a96 96 0 0 0 -192 0v29.372a256.684 256.684 0 0 0 192 0z" fill="#c97e67"/><path d="m256 416a32.036 32.036 0 0 1 -32-32v-32h64v32a32.036 32.036 0 0 1 -32 32z" fill="#f4c2b5"/><path d="m325.1 397.427a136.169 136.169 0 0 1 -165.1 76.59v19.355a256.684 256.684 0 0 0 192 0v-29.372a95.671 95.671 0 0 0 -26.9-66.573z" fill="#c0694e"/><circle cx="204" cy="412" fill="#e8beb3" r="12"/><path d="m208 440a8 8 0 0 0 -8 8v57.84q7.913 1.766 16 3.042v-60.882a8 8 0 0 0 -8-8z" fill="#ae583e"/><path d="m304 440a8 8 0 0 0 -8 8v60.882q8.088-1.269 16-3.042v-57.84a8 8 0 0 0 -8-8z" fill="#ae583e"/><path d="m440 241.062a8 8 0 0 1 -7.586-5.463 139.236 139.236 0 0 0 -111.987-93.583c-68.614-10-86.6-25.016-110.264-48.691a8 8 0 0 1 11.317-11.31c19.977 19.987 34.412 34.428 101.254 44.169a155.239 155.239 0 0 1 124.853 104.337 8.007 8.007 0 0 1 -7.587 10.541z" fill="#f2b200"/><path d="m352.24 399.9a8.043 8.043 0 1 1 .369-.009c-.13.009-.25.009-.369.009zm31.07-6.939a8 8 0 0 1 -3.09-15.391 83.858 83.858 0 0 0 51.78-77.57 122.743 122.743 0 0 0 -105.07-121.431c-88.361-12.84-120.1-45.049-123.43-48.679a8.006 8.006 0 0 1 5.859-13.451 8.058 8.058 0 0 1 5.87 2.561c1.981 2.08 9.75 9.53 26.441 18.1 23.2 11.9 52.66 20.53 87.559 25.629a138.75 138.75 0 0 1 118.771 137.271 99.53 99.53 0 0 1 -17.26 56.109 100.5 100.5 0 0 1 -44.36 36.231 7.95 7.95 0 0 1 -3.07.62z" fill="#f2b200"/><path d="m340 368h-168a68.077 68.077 0 0 1 -68-68v-84c0-25.65 12.265-47.64 35.468-63.593a118.172 118.172 0 0 1 34.592-16.168l5.153-1.289 3.187 4.25c.278.361 32.121 40.313 134.218 55.2a106.743 106.743 0 0 1 91.382 105.6 68.077 68.077 0 0 1 -68 68z" fill="#ffe7de"/><circle cx="168" cy="264" fill="#525252" r="24"/><circle cx="344" cy="264" fill="#525252" r="24"/><path d="m183.915 246.057c.051.641.085 1.288.085 1.943a23.983 23.983 0 0 1 -39.915 17.943 24 24 0 1 0 39.83-19.886z" fill="#3f3f3f"/><path d="m359.915 246.057c.051.641.085 1.288.085 1.943a23.983 23.983 0 0 1 -39.915 17.943 24 24 0 1 0 39.83-19.886z" fill="#3f3f3f"/><circle cx="160" cy="256" fill="#fff" r="8"/><circle cx="336" cy="256" fill="#fff" r="8"/><path d="m408 300a106.7 106.7 0 0 0 -17.465-58.482 251.873 251.873 0 0 1 -218.535 126.482h168a68.077 68.077 0 0 0 68-68z" fill="#f9d8cd"/><g fill="#fff5f2"><circle cx="140" cy="300" r="12"/><circle cx="160" cy="176" r="16"/><circle cx="372" cy="300" r="12"/></g><circle cx="256" cy="72" fill="#ffe7a4" r="16"/><circle cx="300" cy="84" fill="#ffe7a4" r="12"/><path d="m256 312.027a51.2 51.2 0 0 1 -28.437-8.637 8 8 0 1 1 8.875-13.313 35.176 35.176 0 0 0 39.125 0 8 8 0 0 1 8.875 13.313 51.2 51.2 0 0 1 -28.438 8.637z" fill="#f4c2b5"/></svg>