<svg height="512" viewBox="0 0 512 512" width="512" xmlns="http://www.w3.org/2000/svg"><circle cx="256" cy="256" fill="#ff9e80" r="256"/><path d="m426.4 64.974a255.094 255.094 0 0 1 21.6 103.026c0 141.385-114.615 256-256 256a255.026 255.026 0 0 1 -170.4-64.974c39.644 90.074 129.67 152.974 234.4 152.974 141.385 0 256-114.615 256-256a255.348 255.348 0 0 0 -85.6-191.026z" fill="#ff8b6c"/><path d="m440 232h-368v-16c0-101.458 82.542-184 184-184s184 82.542 184 184z" fill="#525252"/><path d="m302.844 38.051a140.024 140.024 0 0 1 -138.844 121.949 139.334 139.334 0 0 1 -74.792-21.64 182.9 182.9 0 0 0 -17.208 77.64v16h368v-16c0-85.275-58.313-157.178-137.156-177.949z" fill="#3f3f3f"/><path d="m92 406.215-6.613-9.715c-5.017-7.367-21.387-32.437-21.387-45.643 0-17.591 12.038-30.857 28-30.857s28 13.266 28 30.857c0 13.206-16.37 38.276-21.387 45.645z" fill="#525252"/><path d="m71.842 374.02a232.384 232.384 0 0 0 13.545 22.48l6.613 9.715 6.613-9.713c5.017-7.369 21.387-32.439 21.387-45.645a34.033 34.033 0 0 0 -4.047-16.436 64.13 64.13 0 0 1 -44.111 39.599z" fill="#3f3f3f"/><path d="m92 344a28.032 28.032 0 0 1 -28-28v-16a28 28 0 0 1 56 0v16a28.032 28.032 0 0 1 -28 28z" fill="#525252"/><path d="m76 320a44.021 44.021 0 0 1 -11.893-1.64 28 28 0 0 0 55.893-2.36v-16a27.834 27.834 0 0 0 -2.087-10.593 44.014 44.014 0 0 1 -41.913 30.593z" fill="#3f3f3f"/><path d="m92 304a28.032 28.032 0 0 1 -28-28v-16a28 28 0 0 1 56 0v16a28.032 28.032 0 0 1 -28 28z" fill="#525252"/><path d="m76 280a44.021 44.021 0 0 1 -11.893-1.64 28 28 0 0 0 55.893-2.36v-16a27.834 27.834 0 0 0 -2.087-10.593 44.014 44.014 0 0 1 -41.913 30.593z" fill="#3f3f3f"/><path d="m92 264a28.032 28.032 0 0 1 -28-28v-16a28 28 0 0 1 56 0v16a28.032 28.032 0 0 1 -28 28z" fill="#525252"/><path d="m76 240a44.021 44.021 0 0 1 -11.893-1.64 28 28 0 0 0 55.893-2.36v-16a27.834 27.834 0 0 0 -2.087-10.593 44.014 44.014 0 0 1 -41.913 30.593z" fill="#3f3f3f"/><path d="m420 406.215-6.613-9.713c-5.017-7.369-21.387-32.439-21.387-45.645 0-17.591 12.038-30.857 28-30.857s28 13.266 28 30.857c0 13.206-16.37 38.276-21.387 45.645z" fill="#525252"/><path d="m399.842 374.02a232.384 232.384 0 0 0 13.545 22.48l6.613 9.715 6.613-9.713c5.017-7.369 21.387-32.439 21.387-45.645a34.033 34.033 0 0 0 -4.047-16.436 64.13 64.13 0 0 1 -44.111 39.599z" fill="#3f3f3f"/><path d="m420 344a28.032 28.032 0 0 1 -28-28v-16a28 28 0 0 1 56 0v16a28.032 28.032 0 0 1 -28 28z" fill="#525252"/><path d="m404 320a44.021 44.021 0 0 1 -11.893-1.64 28 28 0 0 0 55.893-2.36v-16a27.834 27.834 0 0 0 -2.087-10.593 44.014 44.014 0 0 1 -41.913 30.593z" fill="#3f3f3f"/><path d="m420 304a28.032 28.032 0 0 1 -28-28v-16a28 28 0 0 1 56 0v16a28.032 28.032 0 0 1 -28 28z" fill="#525252"/><path d="m404 280a44.021 44.021 0 0 1 -11.893-1.64 28 28 0 0 0 55.893-2.36v-16a27.834 27.834 0 0 0 -2.087-10.593 44.014 44.014 0 0 1 -41.913 30.593z" fill="#3f3f3f"/><path d="m420 264a28.032 28.032 0 0 1 -28-28v-16a28 28 0 0 1 56 0v16a28.032 28.032 0 0 1 -28 28z" fill="#525252"/><path d="m404 240a44.021 44.021 0 0 1 -11.893-1.64 28 28 0 0 0 55.893-2.36v-16a27.834 27.834 0 0 0 -2.087-10.593 44.014 44.014 0 0 1 -41.913 30.593z" fill="#3f3f3f"/><path d="m352 464a96 96 0 0 0 -192 0v29.372a256.684 256.684 0 0 0 192 0z" fill="#ce93d8"/><path d="m256 416a32.036 32.036 0 0 1 -32-32v-32h64v32a32.036 32.036 0 0 1 -32 32z" fill="#f4c2b5"/><path d="m325.1 397.427a136.169 136.169 0 0 1 -165.1 76.59v19.355a256.684 256.684 0 0 0 192 0v-29.372a95.671 95.671 0 0 0 -26.9-66.573z" fill="#c087cc"/><path d="m340 368h-168a68 68 0 0 1 -68-68v-106a34 34 0 0 1 34-34h236a34 34 0 0 1 34 34v106a68 68 0 0 1 -68 68z" fill="#ffe7de"/><g fill="#262626"><path d="m144 160a8 8 0 0 1 -8-8v-16a8 8 0 0 1 16 0v16a8 8 0 0 1 -8 8z"/><path d="m176 160a8 8 0 0 1 -8-8v-16a8 8 0 0 1 16 0v16a8 8 0 0 1 -8 8z"/><path d="m208 160a8 8 0 0 1 -8-8v-16a8 8 0 0 1 16 0v16a8 8 0 0 1 -8 8z"/><path d="m240 160a8 8 0 0 1 -8-8v-16a8 8 0 0 1 16 0v16a8 8 0 0 1 -8 8z"/><path d="m272 160a8 8 0 0 1 -8-8v-16a8 8 0 0 1 16 0v16a8 8 0 0 1 -8 8z"/><path d="m304 160a8 8 0 0 1 -8-8v-16a8 8 0 0 1 16 0v16a8 8 0 0 1 -8 8z"/><path d="m336 160a8 8 0 0 1 -8-8v-16a8 8 0 0 1 16 0v16a8 8 0 0 1 -8 8z"/><path d="m368 160a8 8 0 0 1 -8-8v-16a8 8 0 0 1 16 0v16a8 8 0 0 1 -8 8z"/></g><circle cx="204" cy="412" fill="#e2b9ea" r="12"/><path d="m208 440a8 8 0 0 0 -8 8v57.84q7.913 1.766 16 3.042v-60.882a8 8 0 0 0 -8-8z" fill="#ba68c8"/><path d="m304 440a8 8 0 0 0 -8 8v60.882q8.088-1.269 16-3.042v-57.84a8 8 0 0 0 -8-8z" fill="#ba68c8"/><path d="m172 368h168a68.089 68.089 0 0 0 67.884-64h.116v-94.159a1 1 0 0 0 -1.921-.372c-37.126 92.895-127.931 158.531-234.079 158.531z" fill="#f9d8cd"/><circle cx="140" cy="300" fill="#fff5f2" r="12"/><circle cx="124" cy="180" fill="#fff5f2" r="12"/><circle cx="372" cy="300" fill="#fff5f2" r="12"/><path d="m256 312.027a51.2 51.2 0 0 1 -28.437-8.637 8 8 0 1 1 8.875-13.313 35.176 35.176 0 0 0 39.125 0 8 8 0 0 1 8.875 13.313 51.2 51.2 0 0 1 -28.438 8.637z" fill="#f4c2b5"/><circle cx="192" cy="232" fill="#3f3f3f" r="24"/><circle cx="320" cy="232" fill="#3f3f3f" r="24"/><path d="m272 224h-32c-4.418 0-4.418 16 0 16h32c4.418 0 4.418-16 0-16z" fill="#3f3f3f"/><path d="m408 224h-40c-4.418 0-4.418 16 0 16h40a8 8 0 0 0 0-16z" fill="#3f3f3f"/><path d="m144 224h-40a8 8 0 0 0 0 16h40c4.418 0 4.418-16 0-16z" fill="#3f3f3f"/><path d="m192 288a56 56 0 1 1 56-56 56.063 56.063 0 0 1 -56 56zm0-96a40 40 0 1 0 40 40 40.045 40.045 0 0 0 -40-40z" fill="#525252"/><path d="m320 288a56 56 0 1 1 56-56 56.063 56.063 0 0 1 -56 56zm0-96a40 40 0 1 0 40 40 40.045 40.045 0 0 0 -40-40z" fill="#525252"/><circle cx="184" cy="224" fill="#fff" r="8"/><circle cx="312" cy="224" fill="#fff" r="8"/><path d="m207.915 214.057c.051.641.085 1.288.085 1.943a23.983 23.983 0 0 1 -39.915 17.943 24 24 0 1 0 39.83-19.886z" fill="#262626"/><path d="m335.915 214.057c.051.641.085 1.288.085 1.943a23.983 23.983 0 0 1 -39.915 17.943 24 24 0 1 0 39.83-19.886z" fill="#262626"/><circle cx="192" cy="80" fill="#848484" r="16"/><circle cx="236" cy="92" fill="#848484" r="12"/></svg>