<svg id="Female_Long_Hair_Glasses_2" height="512" viewBox="0 0 512 512" width="512" xmlns="http://www.w3.org/2000/svg" data-name="Female Long Hair Glasses 2"><circle cx="256" cy="256" fill="#ff9e80" r="256"/><path d="m426.4 64.974a255.094 255.094 0 0 1 21.6 103.026c0 141.385-114.615 256-256 256a255.026 255.026 0 0 1 -170.4-64.974c39.644 90.074 129.67 152.974 234.4 152.974 141.385 0 256-114.615 256-256a255.348 255.348 0 0 0 -85.6-191.026z" fill="#ff8b6c"/><path d="m104.333 461.994a256.015 256.015 0 0 0 304 0v-181.994h-304z" fill="#ffd740"/><path d="m176.333 432a239.864 239.864 0 0 1 -72-11v40.989a256.015 256.015 0 0 0 304 0v-208.368c-27.204 102.687-120.756 178.379-232 178.379z" fill="#ffc400"/><path d="m256.333 40c-67.047 0-124.087 43.637-144.228 104h288.456c-20.141-60.363-77.181-104-144.228-104z" fill="#ffd740"/><path d="m323.165 55.5a132.053 132.053 0 0 1 -127.165 96.5h206.982a152.7 152.7 0 0 0 -79.817-96.5z" fill="#ffc400"/><path d="m352 464a96 96 0 0 0 -192 0v29.372a256.684 256.684 0 0 0 192 0z" fill="#e56161"/><path d="m256 416a32.036 32.036 0 0 1 -32-32v-32h64v32a32.036 32.036 0 0 1 -32 32z" fill="#f4c2b5"/><path d="m325.1 397.427a136.169 136.169 0 0 1 -165.1 76.59v19.355a256.684 256.684 0 0 0 192 0v-29.372a95.671 95.671 0 0 0 -26.9-66.573z" fill="#d65858"/><circle cx="204" cy="412" fill="#f29c9c" r="12"/><circle cx="224" cy="68" fill="#ffe7a4" r="16"/><circle cx="268" cy="84" fill="#ffe7a4" r="12"/><path d="m208 440a8 8 0 0 0 -8 8v57.84q7.913 1.766 16 3.042v-60.882a8 8 0 0 0 -8-8z" fill="#bf4b4b"/><path d="m304 440a8 8 0 0 0 -8 8v60.882q8.088-1.269 16-3.042v-57.84a8 8 0 0 0 -8-8z" fill="#bf4b4b"/><path d="m340 368h-168a68.089 68.089 0 0 1 -67.884-64h-.116a48 48 0 0 1 0-96v-48h304v48a48 48 0 0 1 0 96h-.116a68.089 68.089 0 0 1 -67.884 64z" fill="#ffe7de"/><path d="m408 176h-304v-32a32.036 32.036 0 0 1 32-32h240a32.036 32.036 0 0 1 32 32z" fill="#e56161"/><path d="m376 112h-86.142a171.661 171.661 0 0 1 -133.858 64h252v-32a32.036 32.036 0 0 0 -32-32z" fill="#d65858"/><path d="m256 312.027a51.2 51.2 0 0 1 -28.437-8.637 8 8 0 1 1 8.875-13.313 35.176 35.176 0 0 0 39.125 0 8 8 0 0 1 8.875 13.313 51.2 51.2 0 0 1 -28.438 8.637z" fill="#f4c2b5"/><path d="m408 208v-3.49c-35.837 95.509-127.973 163.49-236 163.49h168a68.089 68.089 0 0 0 67.884-64h.116a48 48 0 0 0 0-96z" fill="#f9d8cd"/><path d="m96 272a8 8 0 1 1 8-8 8.011 8.011 0 0 1 -8 8zm8-64v23.716a8.189 8.189 0 0 1 -7.45 8.265 8.009 8.009 0 0 1 -8.55-7.981v-8a16 16 0 0 1 16-16z" fill="#f4c2b5"/><path d="m416 272a8 8 0 1 1 8-8 8.011 8.011 0 0 1 -8 8zm8-48v7.716a8.189 8.189 0 0 1 -7.45 8.265 8.009 8.009 0 0 1 -8.55-7.981v-24a16 16 0 0 1 16 16z" fill="#f4c2b5"/><g fill="#262626"><path d="m272 224h-32a8 8 0 0 1 0-16h32a8 8 0 0 1 0 16z"/><path d="m408 224h-40a8 8 0 0 1 0-16h40a8 8 0 0 1 0 16z"/><path d="m144 224h-40a8 8 0 0 1 0-16h40a8 8 0 0 1 0 16z"/></g><path d="m217.875 272h-41.875a40.045 40.045 0 0 1 -40-40v-24a16.019 16.019 0 0 1 16-16h69.875a24 24 0 0 1 23.815 26.977l-4 32a24.038 24.038 0 0 1 -23.815 21.023z" fill="#525252"/><path d="m336 272h-41.875a24.038 24.038 0 0 1 -23.815-21.023l-4-32a24 24 0 0 1 23.815-26.977h69.875a16.019 16.019 0 0 1 16 16v24a40.045 40.045 0 0 1 -40 40z" fill="#525252"/><path d="m239.868 200.117a24.006 24.006 0 0 0 -16-8.026 67.97 67.97 0 0 1 -80.726 62.678 39.976 39.976 0 0 0 32.858 17.231h41.875a24.038 24.038 0 0 0 23.815-21.023l4-32a24.013 24.013 0 0 0 -5.822-18.86z" fill="#3f3f3f"/><path d="m360 192h-8.127a67.973 67.973 0 0 1 -80.755 62.765 24.034 24.034 0 0 0 23.007 17.235h41.875a40.045 40.045 0 0 0 40-40v-24a16.019 16.019 0 0 0 -16-16z" fill="#3f3f3f"/><circle cx="156" cy="212" fill="#848484" r="12"/><circle cx="292" cy="212" fill="#848484" r="12"/><circle cx="140" cy="300" fill="#fff5f2" r="12"/><circle cx="372" cy="300" fill="#fff5f2" r="12"/><circle cx="132" cy="132" fill="#f29c9c" r="12"/></svg>