<svg height="512" viewBox="0 0 512 512" width="512" xmlns="http://www.w3.org/2000/svg"><circle cx="256" cy="256" fill="#ff9e80" r="256"/><path d="m426.4 64.974a255.094 255.094 0 0 1 21.6 103.026c0 141.385-114.615 256-256 256a255.026 255.026 0 0 1 -170.4-64.974c39.644 90.074 129.67 152.974 234.4 152.974 141.385 0 256-114.615 256-256a255.348 255.348 0 0 0 -85.6-191.026z" fill="#ff8b6c"/><path d="m448 232c0-105.869-86.131-192-192-192s-192 86.131-192 192v193.307a255.959 255.959 0 0 0 384 0z" fill="#c97e67"/><path d="m423.989 139.121c0 .294.011.585.011.879 0 148.012-119.988 268-268 268a267.488 267.488 0 0 1 -92-16.21v33.517a255.959 255.959 0 0 0 384 0v-193.307a190.807 190.807 0 0 0 -24.011-92.879z" fill="#c0694e"/><path d="m352 464a96 96 0 0 0 -192 0v29.372a256.684 256.684 0 0 0 192 0z" fill="#ce93d8"/><path d="m256 416a32.036 32.036 0 0 1 -32-32v-32h64v32a32.036 32.036 0 0 1 -32 32z" fill="#f4c2b5"/><path d="m325.1 397.427a136.169 136.169 0 0 1 -165.1 76.59v19.355a256.684 256.684 0 0 0 192 0v-29.372a95.671 95.671 0 0 0 -26.9-66.573z" fill="#c087cc"/><circle cx="204" cy="412" fill="#e2b9ea" r="12"/><path d="m208 440a8 8 0 0 0 -8 8v57.84q7.913 1.766 16 3.042v-60.882a8 8 0 0 0 -8-8z" fill="#ba68c8"/><path d="m304 440a8 8 0 0 0 -8 8v60.882q8.088-1.269 16-3.042v-57.84a8 8 0 0 0 -8-8z" fill="#ba68c8"/><path d="m340 368h-168a68 68 0 0 1 -68-68v-100a24 24 0 0 1 24-24h256a24 24 0 0 1 24 24v100a68 68 0 0 1 -68 68z" fill="#ffe7de"/><path d="m328 160h-8a8 8 0 0 1 0-16h8a16.019 16.019 0 0 0 16-16 8 8 0 0 1 16 0 32.036 32.036 0 0 1 -32 32z" fill="#ae583e"/><path d="m272 160h-8a8 8 0 0 1 0-16h8a16.019 16.019 0 0 0 16-16 8 8 0 0 1 16 0 32.036 32.036 0 0 1 -32 32z" fill="#ae583e"/><path d="m216 160h-8a8 8 0 0 1 0-16h8a16.019 16.019 0 0 0 16-16 8 8 0 0 1 16 0 32.036 32.036 0 0 1 -32 32z" fill="#ae583e"/><path d="m160 160h-8a8 8 0 0 1 0-16h8a16.019 16.019 0 0 0 16-16 8 8 0 0 1 16 0 32.036 32.036 0 0 1 -32 32z" fill="#ae583e"/><path d="m408 204.51c-35.837 95.509-127.973 163.49-236 163.49h168a68.089 68.089 0 0 0 67.884-64z" fill="#f9d8cd"/><circle cx="140" cy="300" fill="#fff5f2" r="12"/><circle cx="200" cy="80" fill="#e8beb3" r="16"/><circle cx="244" cy="88" fill="#e8beb3" r="12"/><circle cx="372" cy="300" fill="#fff5f2" r="12"/><path d="m256 312.027a51.2 51.2 0 0 1 -28.438-8.637 8 8 0 0 1 8.875-13.313 35.176 35.176 0 0 0 39.125 0 8 8 0 0 1 8.875 13.313 51.2 51.2 0 0 1 -28.437 8.637z" fill="#f4c2b5"/><g fill="#3f3f3f"><circle cx="192" cy="232" r="24"/><circle cx="320" cy="232" r="24"/><path d="m272 224h-32c-4.418 0-4.418 16 0 16h32c4.418 0 4.418-16 0-16z"/><path d="m408 224h-40c-4.418 0-4.418 16 0 16h40a8 8 0 0 0 0-16z"/><path d="m144 224h-40a8 8 0 0 0 0 16h40c4.418 0 4.418-16 0-16z"/></g><path d="m192 288a56 56 0 1 1 56-56 56.063 56.063 0 0 1 -56 56zm0-96a40 40 0 1 0 40 40 40.045 40.045 0 0 0 -40-40z" fill="#525252"/><path d="m320 288a56 56 0 1 1 56-56 56.063 56.063 0 0 1 -56 56zm0-96a40 40 0 1 0 40 40 40.045 40.045 0 0 0 -40-40z" fill="#525252"/><circle cx="184" cy="224" fill="#fff" r="8"/><circle cx="312" cy="224" fill="#fff" r="8"/><path d="m207.915 214.057c.051.641.085 1.288.085 1.943a23.983 23.983 0 0 1 -39.915 17.943 24 24 0 1 0 39.83-19.886z" fill="#262626"/><path d="m335.915 214.057c.051.641.085 1.288.085 1.943a23.983 23.983 0 0 1 -39.915 17.943 24 24 0 1 0 39.83-19.886z" fill="#262626"/></svg>