<svg height="512" viewBox="0 0 512 512" width="512" xmlns="http://www.w3.org/2000/svg"><circle cx="256" cy="256" fill="#79d1c9" r="256"/><path d="m426.4 64.974a255.094 255.094 0 0 1 21.6 103.026c0 141.385-114.615 256-256 256a255.026 255.026 0 0 1 -170.4-64.974c39.644 90.074 129.67 152.974 234.4 152.974 141.385 0 256-114.615 256-256a255.348 255.348 0 0 0 -85.6-191.026z" fill="#5fc4b8"/><path d="m368 400h-224a88.1 88.1 0 0 1 -88-88v-84c0-108.075 87.925-196 196-196 112.486 0 204 91.514 204 204v76a88.1 88.1 0 0 1 -88 88z" fill="#ffd740"/><path d="m397.563 93.232a243.965 243.965 0 0 1 10.437 70.768c0 113.276-77.195 208.512-181.844 236h141.844a88.1 88.1 0 0 0 88-88v-76a203.317 203.317 0 0 0 -58.437-142.768z" fill="#ffc400"/><path d="m196 176h76a16 16 0 0 0 16-16v-42.331a13.65 13.65 0 0 1 .5-3.627 100.024 100.024 0 0 1 -92.5 61.958z" fill="#ffc400"/><path d="m352 464a96 96 0 0 0 -192 0v29.372a256.684 256.684 0 0 0 192 0z" fill="#ce93d8"/><path d="m256 416a32.036 32.036 0 0 1 -32-32v-32h64v32a32.036 32.036 0 0 1 -32 32z" fill="#f4c2b5"/><path d="m325.1 397.427a136.169 136.169 0 0 1 -165.1 76.59v19.355a256.684 256.684 0 0 0 192 0v-29.372a95.671 95.671 0 0 0 -26.9-66.573z" fill="#c087cc"/><circle cx="204" cy="412" fill="#e2b9ea" r="12"/><path d="m208 440a8 8 0 0 0 -8 8v57.84q7.913 1.766 16 3.042v-60.882a8 8 0 0 0 -8-8z" fill="#ba68c8"/><path d="m304 440a8 8 0 0 0 -8 8v60.882q8.088-1.269 16-3.042v-57.84a8 8 0 0 0 -8-8z" fill="#ba68c8"/><path d="m301.669 104a13.756 13.756 0 0 1 4.918.912c14.6 5.575 40.4 22.522 44.662 63.827a8.025 8.025 0 0 0 7.962 7.261h40.789a8 8 0 0 1 8 8v24a48 48 0 0 1 0 96h-.116a68.09 68.09 0 0 1 -67.884 64h-168a68.09 68.09 0 0 1 -67.884-64h-.116a48 48 0 0 1 0-96v-24a8 8 0 0 1 8-8h160a16 16 0 0 0 16-16v-42.331a13.669 13.669 0 0 1 13.669-13.669z" fill="#ffe7de"/><circle cx="168" cy="264" fill="#525252" r="24"/><circle cx="344" cy="264" fill="#525252" r="24"/><path d="m183.915 246.057c.051.641.085 1.288.085 1.943a23.983 23.983 0 0 1 -39.915 17.943 24 24 0 1 0 39.83-19.886z" fill="#3f3f3f"/><path d="m359.915 246.057c.051.641.085 1.288.085 1.943a23.983 23.983 0 0 1 -39.915 17.943 24 24 0 1 0 39.83-19.886z" fill="#3f3f3f"/><circle cx="160" cy="256" fill="#fff" r="8"/><circle cx="336" cy="256" fill="#fff" r="8"/><path d="m408 208v-3.49c-35.837 95.509-127.973 163.49-236 163.49h168a68.089 68.089 0 0 0 67.884-64h.116a48 48 0 0 0 0-96z" fill="#f9d8cd"/><path d="m96 272a8 8 0 1 1 8-8 8.011 8.011 0 0 1 -8 8zm8-64v23.716a8.189 8.189 0 0 1 -7.45 8.265 8.009 8.009 0 0 1 -8.55-7.981v-8a16 16 0 0 1 16-16z" fill="#f4c2b5"/><path d="m416 272a8 8 0 1 1 8-8 8.011 8.011 0 0 1 -8 8zm8-48v7.716a8.189 8.189 0 0 1 -7.45 8.265 8.009 8.009 0 0 1 -8.55-7.981v-24a16 16 0 0 1 16 16z" fill="#f4c2b5"/><circle cx="140" cy="300" fill="#fff5f2" r="12"/><circle cx="176" cy="96" fill="#ffe7a4" r="24"/><circle cx="232" cy="128" fill="#ffe7a4" r="16"/><circle cx="372" cy="300" fill="#fff5f2" r="12"/><path d="m144.006 232a8 8 0 0 1 -3.584-15.157 84.206 84.206 0 0 1 37.467-8.843h14.111a8 8 0 0 1 0 16h-14.111a68.118 68.118 0 0 0 -30.311 7.155 7.973 7.973 0 0 1 -3.572.845z" fill="#525252"/><path d="m367.994 232a7.976 7.976 0 0 1 -3.572-.847 68.118 68.118 0 0 0 -30.311-7.153h-14.111a8 8 0 0 1 0-16h14.111a84.206 84.206 0 0 1 37.467 8.845 8 8 0 0 1 -3.584 15.155z" fill="#525252"/><path d="m256 312.027a51.2 51.2 0 0 1 -28.437-8.637 8 8 0 1 1 8.875-13.313 35.176 35.176 0 0 0 39.125 0 8 8 0 0 1 8.875 13.313 51.2 51.2 0 0 1 -28.438 8.637z" fill="#f4c2b5"/></svg>