<svg height="512" viewBox="0 0 512 512" width="512" xmlns="http://www.w3.org/2000/svg"><circle cx="256" cy="256" fill="#79d1c9" r="256"/><path d="m426.4 64.974a255.094 255.094 0 0 1 21.6 103.026c0 141.385-114.615 256-256 256a255.026 255.026 0 0 1 -170.4-64.974c39.644 90.074 129.67 152.974 234.4 152.974 141.385 0 256-114.615 256-256a255.348 255.348 0 0 0 -85.6-191.026z" fill="#5fc4b8"/><path d="m352 464a96 96 0 0 0 -192 0v29.372a256.684 256.684 0 0 0 192 0z" fill="#0277bd"/><path d="m256 416a32.036 32.036 0 0 1 -32-32v-32h64v32a32.036 32.036 0 0 1 -32 32z" fill="#f4c2b5"/><path d="m325.1 397.427a136.169 136.169 0 0 1 -165.1 76.59v19.355a256.684 256.684 0 0 0 192 0v-29.372a95.671 95.671 0 0 0 -26.9-66.573z" fill="#0469bc"/><circle cx="204" cy="412" fill="#4baee0" r="12"/><path d="m208 440a8 8 0 0 0 -8 8v57.84q7.913 1.766 16 3.042v-60.882a8 8 0 0 0 -8-8z" fill="#01579b"/><path d="m304 440a8 8 0 0 0 -8 8v60.882q8.088-1.269 16-3.042v-57.84a8 8 0 0 0 -8-8z" fill="#01579b"/><path d="m440 232h-160v-168h40a120.136 120.136 0 0 1 120 120z" fill="#bf4b4b"/><path d="m340 368h-168a68 68 0 0 1 -68-68v-124h272a32 32 0 0 1 32 32 49.364 49.364 0 0 1 34.031 14.535 47.809 47.809 0 0 1 -34.031 81.465h-.116a68.089 68.089 0 0 1 -67.884 64z" fill="#ffe7de"/><circle cx="168" cy="264" fill="#525252" r="24"/><circle cx="344" cy="264" fill="#525252" r="24"/><path d="m183.915 246.057c.051.641.085 1.288.085 1.943a23.983 23.983 0 0 1 -39.915 17.943 24 24 0 1 0 39.83-19.886z" fill="#3f3f3f"/><path d="m359.915 246.057c.051.641.085 1.288.085 1.943a23.983 23.983 0 0 1 -39.915 17.943 24 24 0 1 0 39.83-19.886z" fill="#3f3f3f"/><circle cx="160" cy="256" fill="#fff" r="8"/><circle cx="336" cy="256" fill="#fff" r="8"/><path d="m408 208v-3.49c-35.837 95.509-127.973 163.49-236 163.49h168a68.089 68.089 0 0 0 67.884-64h.116a48 48 0 0 0 0-96z" fill="#f9d8cd"/><path d="m416 272a8 8 0 1 1 8-8 8.011 8.011 0 0 1 -8 8zm8-48v7.716a8.189 8.189 0 0 1 -7.45 8.265 8.009 8.009 0 0 1 -8.55-7.981v-24a16 16 0 0 1 16 16z" fill="#f4c2b5"/><circle cx="140" cy="300" fill="#fff5f2" r="12"/><circle cx="372" cy="300" fill="#fff5f2" r="12"/><path d="m144.006 232a8 8 0 0 1 -3.584-15.157 84.206 84.206 0 0 1 37.467-8.843h14.111a8 8 0 0 1 0 16h-14.111a68.118 68.118 0 0 0 -30.311 7.155 7.973 7.973 0 0 1 -3.572.845z" fill="#525252"/><path d="m367.994 232a7.976 7.976 0 0 1 -3.572-.847 68.118 68.118 0 0 0 -30.311-7.153h-14.111a8 8 0 0 1 0-16h14.111a84.206 84.206 0 0 1 37.467 8.845 8 8 0 0 1 -3.584 15.155z" fill="#525252"/><path d="m256 312.027a51.2 51.2 0 0 1 -28.437-8.637 8 8 0 1 1 8.875-13.313 35.176 35.176 0 0 0 39.125 0 8 8 0 0 1 8.875 13.313 51.2 51.2 0 0 1 -28.438 8.637z" fill="#f4c2b5"/><path d="m64 336v-120a168 168 0 0 1 168-168h32a104.118 104.118 0 0 1 104 104.222 39.954 39.954 0 0 1 -40 39.778h-63.3c-69.6 0-148.352 30.825-172.12 115.467a41.37 41.37 0 0 1 -28.58 28.533z" fill="#e56161"/><path d="m325.619 68.275a168.229 168.229 0 0 1 -102.6 127.491 230.775 230.775 0 0 1 41.681-3.766h63.3a39.954 39.954 0 0 0 40-39.778 103.917 103.917 0 0 0 -42.381-83.947z" fill="#d65858"/><g fill="#f29c9c"><circle cx="160" cy="120" r="24"/><circle cx="220" cy="132" r="12"/></g></svg>