<svg height="512" viewBox="0 0 512 512" width="512" xmlns="http://www.w3.org/2000/svg"><circle cx="256" cy="256" fill="#79d1c9" r="256"/><path d="m426.4 64.974a255.094 255.094 0 0 1 21.6 103.026c0 141.385-114.615 256-256 256a255.026 255.026 0 0 1 -170.4-64.974c39.644 90.074 129.67 152.974 234.4 152.974 141.385 0 256-114.615 256-256a255.348 255.348 0 0 0 -85.6-191.026z" fill="#5fc4b8"/><path d="m352 464a96 96 0 0 0 -192 0v29.372a256.684 256.684 0 0 0 192 0z" fill="#e56161"/><path d="m256 416a32.036 32.036 0 0 1 -32-32v-32h64v32a32.036 32.036 0 0 1 -32 32z" fill="#f4c2b5"/><path d="m325.1 397.427a136.169 136.169 0 0 1 -165.1 76.59v19.355a256.684 256.684 0 0 0 192 0v-29.372a95.671 95.671 0 0 0 -26.9-66.573z" fill="#e56161"/><circle cx="204" cy="412" fill="#f29c9c" r="12"/><path d="m208 440a8 8 0 0 0 -8 8v57.84q7.913 1.766 16 3.042v-60.882a8 8 0 0 0 -8-8z" fill="#bf4b4b"/><path d="m304 440a8 8 0 0 0 -8 8v60.882q8.088-1.269 16-3.042v-57.84a8 8 0 0 0 -8-8z" fill="#bf4b4b"/><path d="m340 368h-168a68.077 68.077 0 0 1 -68-68v-68a56.063 56.063 0 0 1 56-56h32a56.063 56.063 0 0 0 56-56h16a56.063 56.063 0 0 0 56 56h32a56.063 56.063 0 0 1 56 56v68a68.077 68.077 0 0 1 -68 68z" fill="#ffe7de"/><path d="m404.656 212.942c-37.982 91.052-127.837 155.058-232.656 155.058h168a68.089 68.089 0 0 0 67.884-64h.116v-72a55.734 55.734 0 0 0 -3.344-19.058z" fill="#f9d8cd"/><circle cx="168" cy="264" fill="#525252" r="24"/><circle cx="344" cy="264" fill="#525252" r="24"/><path d="m183.915 246.057c.051.641.085 1.288.085 1.943a23.983 23.983 0 0 1 -39.915 17.943 24 24 0 1 0 39.83-19.886z" fill="#3f3f3f"/><path d="m359.915 246.057c.051.641.085 1.288.085 1.943a23.983 23.983 0 0 1 -39.915 17.943 24 24 0 1 0 39.83-19.886z" fill="#3f3f3f"/><circle cx="160" cy="256" fill="#fff" r="8"/><circle cx="336" cy="256" fill="#fff" r="8"/><circle cx="140" cy="300" fill="#fff5f2" r="12"/><circle cx="372" cy="300" fill="#fff5f2" r="12"/><path d="m144.006 232a8 8 0 0 1 -3.584-15.157 84.206 84.206 0 0 1 37.467-8.843h14.111a8 8 0 0 1 0 16h-14.111a68.118 68.118 0 0 0 -30.311 7.155 7.973 7.973 0 0 1 -3.572.845z" fill="#525252"/><path d="m367.994 232a7.976 7.976 0 0 1 -3.572-.847 68.118 68.118 0 0 0 -30.311-7.153h-14.111a8 8 0 0 1 0-16h14.111a84.206 84.206 0 0 1 37.467 8.845 8 8 0 0 1 -3.584 15.155z" fill="#525252"/><path d="m256 312.027a51.2 51.2 0 0 1 -28.437-8.637 8 8 0 1 1 8.875-13.313 35.176 35.176 0 0 0 39.125 0 8 8 0 0 1 8.875 13.313 51.2 51.2 0 0 1 -28.438 8.637z" fill="#f4c2b5"/><path d="m404.013 312a12.017 12.017 0 0 1 -12.013-12.007v-67.993a40.045 40.045 0 0 0 -40-40h-32a72.078 72.078 0 0 1 -64-39.034 72.078 72.078 0 0 1 -64 39.034h-32a40.045 40.045 0 0 0 -40 40v67.993a12 12 0 0 1 -20.485 8.485l-9.171-9.171a62.214 62.214 0 0 1 -18.344-44.284v-23.023c0-101.458 82.542-184 184-184s184 82.542 184 184v23.023a62.217 62.217 0 0 1 -18.343 44.284l-9.173 9.172a11.959 11.959 0 0 1 -8.471 3.521z" fill="#ffd740"/><path d="m394.065 110.512a183.724 183.724 0 0 1 -45.899 81.488h3.834a40.045 40.045 0 0 1 40 40v67.993a12 12 0 0 0 20.484 8.486l9.173-9.172a62.217 62.217 0 0 0 18.343-44.284v-23.023a183.231 183.231 0 0 0 -45.935-121.488z" fill="#ffc400"/><path d="m256 104s-32 72-96 88h32a72.078 72.078 0 0 0 64-39.034z" fill="#ffc400"/><path d="m256 152a8 8 0 0 1 -8-8v-88a8 8 0 0 1 16 0v88a8 8 0 0 1 -8 8z" fill="#f2b200"/><g fill="#ffe7a4"><circle cx="168" cy="120" r="24"/><circle cx="204" cy="156" r="12"/></g></svg>