<svg height="512" viewBox="0 0 512 512" width="512" xmlns="http://www.w3.org/2000/svg"><circle cx="256" cy="256" fill="#ff9e80" r="256"/><path d="m426.4 64.974a255.094 255.094 0 0 1 21.6 103.026c0 141.385-114.615 256-256 256a255.026 255.026 0 0 1 -170.4-64.974c39.644 90.074 129.67 152.974 234.4 152.974 141.385 0 256-114.615 256-256a255.348 255.348 0 0 0 -85.6-191.026z" fill="#ff8b6c"/><path d="m368 416h-224a40.045 40.045 0 0 1 -40-40v-158.844a132.286 132.286 0 0 1 127.045-169.156h49.91a132.287 132.287 0 0 1 127.045 169.156v158.844a40.045 40.045 0 0 1 -40 40z" fill="#ffd740"/><g fill="#ffc400"><path d="m122.349 409.607a39.713 39.713 0 0 0 18.826 6.282q-9.605-2.712-18.826-6.282z"/><path d="m413.148 172.916a131.03 131.03 0 0 0 -22.6-66.695 214.472 214.472 0 0 1 22.6 66.695z"/><path d="m258.415 416h109.585a40.045 40.045 0 0 0 40-40v-109.584a216.417 216.417 0 0 1 -149.585 149.584z"/></g><path d="m352 464a96 96 0 0 0 -192 0v29.372a256.684 256.684 0 0 0 192 0z" fill="#e56161"/><path d="m256 416a32.036 32.036 0 0 1 -32-32v-32h64v32a32.036 32.036 0 0 1 -32 32z" fill="#f4c2b5"/><path d="m325.1 397.427a136.169 136.169 0 0 1 -165.1 76.59v19.355a256.684 256.684 0 0 0 192 0v-29.372a95.671 95.671 0 0 0 -26.9-66.573z" fill="#d65858"/><circle cx="204" cy="412" fill="#f29c9c" r="12"/><path d="m208 440a8 8 0 0 0 -8 8v57.84q7.913 1.766 16 3.042v-60.882a8 8 0 0 0 -8-8z" fill="#bf4b4b"/><path d="m304 440a8 8 0 0 0 -8 8v60.882q8.088-1.269 16-3.042v-57.84a8 8 0 0 0 -8-8z" fill="#bf4b4b"/><path d="m340 368h-168a68.089 68.089 0 0 1 -67.884-64h-.116a48 48 0 0 1 0-96h.408c2.3-22.227 14.307-41.324 35.06-55.593a118.172 118.172 0 0 1 34.592-16.168l5.153-1.289 3.187 4.25c.085.11 12 15.258 44.486 30.251 30.194 13.937 84.737 30.549 173.114 30.549a8 8 0 0 1 8 8 48 48 0 0 1 0 96h-.116a68.089 68.089 0 0 1 -67.884 64z" fill="#ffe7de"/><circle cx="168" cy="264" fill="#525252" r="24"/><circle cx="344" cy="264" fill="#525252" r="24"/><path d="m183.915 246.057c.051.641.085 1.288.085 1.943a23.983 23.983 0 0 1 -39.915 17.943 24 24 0 1 0 39.83-19.886z" fill="#3f3f3f"/><path d="m359.915 246.057c.051.641.085 1.288.085 1.943a23.983 23.983 0 0 1 -39.915 17.943 24 24 0 1 0 39.83-19.886z" fill="#3f3f3f"/><circle cx="160" cy="256" fill="#fff" r="8"/><circle cx="336" cy="256" fill="#fff" r="8"/><path d="m408 208v-3.49c-35.837 95.509-127.973 163.49-236 163.49h168a68.089 68.089 0 0 0 67.884-64h.116a48 48 0 0 0 0-96z" fill="#f9d8cd"/><path d="m96 272a8 8 0 1 1 8-8 8.011 8.011 0 0 1 -8 8zm8-64v23.716a8.189 8.189 0 0 1 -7.45 8.265 8.009 8.009 0 0 1 -8.55-7.981v-8a16 16 0 0 1 16-16z" fill="#f4c2b5"/><path d="m416 272a8 8 0 1 1 8-8 8.011 8.011 0 0 1 -8 8zm8-48v7.716a8.189 8.189 0 0 1 -7.45 8.265 8.009 8.009 0 0 1 -8.55-7.981v-24a16 16 0 0 1 16 16z" fill="#f4c2b5"/><circle cx="140" cy="300" fill="#fff5f2" r="12"/><path d="m184 136c11.526 28.447 48 72 216 72h10.307a132.288 132.288 0 0 0 -129.352-160h-49.91a132.287 132.287 0 0 0 -129.352 160h10.307c56 0 72-72 72-72z" fill="#ffd740"/><path d="m98.709 183.18a132.962 132.962 0 0 0 2.984 24.82h10.307c49.044 0 67.407-55.221 71.213-68.941a131.725 131.725 0 0 1 -84.504 44.121z" fill="#ffc400"/><path d="m387.087 101.32q-4.058-5.452-8.577-10.391a140.1 140.1 0 0 1 -121.933 100.5c31.857 9.871 77.516 16.571 143.423 16.571h10.307a130.946 130.946 0 0 0 -23.22-106.68z" fill="#ffc400"/><path d="m197.376 103.558a121.274 121.274 0 0 0 15.405 11.242c39.772 24.683 102.762 37.2 187.219 37.2h10.314a130.064 130.064 0 0 0 -4.6-16h-5.714c-99.4 0-150.94-18.227-176.672-33.517-23.967-14.241-30.184-28.47-31.328-31.673v-17.019a130.263 130.263 0 0 0 -16 6.064v98.891a128.278 128.278 0 0 0 8-22.746 73.052 73.052 0 0 0 8 14.729v-25.841c1.677 2.076 3.472 4.108 5.411 6.086 12.371 12.626 30.149 23.237 52.84 31.539 48.542 17.759 108.228 21.487 149.749 21.487h13.265a130.648 130.648 0 0 0 -.483-16h-12.782c-87.273 0-179.722-17.421-202.624-64.442z" fill="#f2b200"/><circle cx="148" cy="116" fill="#ffe7a4" r="12"/><circle cx="248" cy="72" fill="#ffe7a4" r="16"/><circle cx="284" cy="92" fill="#ffe7a4" r="12"/><circle cx="372" cy="300" fill="#fff5f2" r="12"/><path d="m256 312.027a51.2 51.2 0 0 1 -28.438-8.637 8 8 0 0 1 8.875-13.313 35.176 35.176 0 0 0 39.125 0 8 8 0 0 1 8.875 13.313 51.2 51.2 0 0 1 -28.437 8.637z" fill="#f4c2b5"/><path d="m144.006 232a8 8 0 0 1 -3.584-15.157 84.206 84.206 0 0 1 37.467-8.843h14.111a8 8 0 0 1 0 16h-14.111a68.118 68.118 0 0 0 -30.311 7.155 7.973 7.973 0 0 1 -3.572.845z" fill="#525252"/><path d="m367.994 232a7.976 7.976 0 0 1 -3.572-.847 68.118 68.118 0 0 0 -30.311-7.153h-14.111a8 8 0 0 1 0-16h14.111a84.206 84.206 0 0 1 37.467 8.845 8 8 0 0 1 -3.584 15.155z" fill="#525252"/></svg>