<svg height="512" viewBox="0 0 512 512" width="512" xmlns="http://www.w3.org/2000/svg"><circle cx="256" cy="256" fill="#79d1c9" r="256"/><path d="m426.4 64.974a255.094 255.094 0 0 1 21.6 103.026c0 141.385-114.615 256-256 256a255.026 255.026 0 0 1 -170.4-64.974c39.644 90.074 129.67 152.974 234.4 152.974 141.385 0 256-114.615 256-256a255.348 255.348 0 0 0 -85.6-191.026z" fill="#5fc4b8"/><path d="m352 464a96 96 0 0 0 -192 0v29.372a256.684 256.684 0 0 0 192 0z" fill="#ce93d8"/><path d="m256 416a32.036 32.036 0 0 1 -32-32v-32h64v32a32.036 32.036 0 0 1 -32 32z" fill="#f4c2b5"/><path d="m340 368h-168a68.089 68.089 0 0 1 -67.884-64h-.116a48 48 0 0 1 0-96v-8c0-83.813 68.187-152 152-152s152 68.187 152 152v8a48 48 0 0 1 0 96h-.116a68.089 68.089 0 0 1 -67.884 64z" fill="#ffe7de"/><path d="m408 208v-3.49c-35.837 95.509-127.973 163.49-236 163.49h168a68.089 68.089 0 0 0 67.884-64h.116a48 48 0 0 0 0-96z" fill="#f9d8cd"/><path d="m96 272a8 8 0 1 1 8-8 8.011 8.011 0 0 1 -8 8zm8-64v23.716a8.189 8.189 0 0 1 -7.45 8.265 8.009 8.009 0 0 1 -8.55-7.981v-8a16 16 0 0 1 16-16z" fill="#f4c2b5"/><path d="m416 272a8 8 0 1 1 8-8 8.011 8.011 0 0 1 -8 8zm8-48v7.716a8.189 8.189 0 0 1 -7.45 8.265 8.009 8.009 0 0 1 -8.55-7.981v-24a16 16 0 0 1 16 16z" fill="#f4c2b5"/><circle cx="200" cy="120" fill="#fff" r="24"/><circle cx="140" cy="300" fill="#fff" r="12"/><circle cx="372" cy="300" fill="#fff" r="12"/><circle cx="244" cy="92" fill="#fff" r="12"/><circle cx="204" cy="412" fill="#e2b9ea" r="12"/><path d="m325.1 397.427a136.169 136.169 0 0 1 -165.1 76.59v19.355a256.684 256.684 0 0 0 192 0v-29.372a95.671 95.671 0 0 0 -26.9-66.573z" fill="#c087cc"/><path d="m208 440a8 8 0 0 0 -8 8v57.84q7.913 1.766 16 3.042v-60.882a8 8 0 0 0 -8-8z" fill="#ba68c8"/><path d="m304 440a8 8 0 0 0 -8 8v60.882q8.088-1.269 16-3.042v-57.84a8 8 0 0 0 -8-8z" fill="#ba68c8"/><path d="m256 312.027a51.2 51.2 0 0 1 -28.437-8.637 8 8 0 1 1 8.875-13.313 35.176 35.176 0 0 0 39.125 0 8 8 0 0 1 8.875 13.313 51.2 51.2 0 0 1 -28.438 8.637z" fill="#f4c2b5"/><g fill="#3f3f3f"><circle cx="192" cy="216" r="24"/><circle cx="320" cy="216" r="24"/><path d="m272 208h-32c-4.418 0-4.418 16 0 16h32c4.418 0 4.418-16 0-16z"/><path d="m408 208h-40c-4.418 0-4.418 16 0 16h40a8 8 0 0 0 0-16z"/><path d="m144 208h-40a8 8 0 0 0 0 16h40c4.418 0 4.418-16 0-16z"/></g><path d="m192 272a56 56 0 1 1 56-56 56.063 56.063 0 0 1 -56 56zm0-96a40 40 0 1 0 40 40 40.045 40.045 0 0 0 -40-40z" fill="#525252"/><path d="m320 272a56 56 0 1 1 56-56 56.063 56.063 0 0 1 -56 56zm0-96a40 40 0 1 0 40 40 40.045 40.045 0 0 0 -40-40z" fill="#525252"/><circle cx="184" cy="208" fill="#fff" r="8"/><circle cx="312" cy="208" fill="#fff" r="8"/><path d="m207.915 198.057c.051.641.085 1.288.085 1.943a23.983 23.983 0 0 1 -39.915 17.943 24 24 0 1 0 39.83-19.886z" fill="#262626"/><path d="m335.915 198.057c.051.641.085 1.288.085 1.943a23.983 23.983 0 0 1 -39.915 17.943 24 24 0 1 0 39.83-19.886z" fill="#262626"/></svg>