<svg height="512" viewBox="0 0 512 512" width="512" xmlns="http://www.w3.org/2000/svg"><circle cx="256" cy="256" fill="#79d1c9" r="256"/><path d="m426.4 64.974a255.094 255.094 0 0 1 21.6 103.026c0 141.385-114.615 256-256 256a255.026 255.026 0 0 1 -170.4-64.974c39.644 90.074 129.67 152.974 234.4 152.974 141.385 0 256-114.615 256-256a255.348 255.348 0 0 0 -85.6-191.026z" fill="#5fc4b8"/><path d="m352 464a96 96 0 0 0 -192 0v29.372a256.684 256.684 0 0 0 192 0z" fill="#e56161"/><path d="m256 416a32.036 32.036 0 0 1 -32-32v-32h64v32a32.036 32.036 0 0 1 -32 32z" fill="#f4c2b5"/><path d="m325.1 397.427a136.169 136.169 0 0 1 -165.1 76.59v19.355a256.684 256.684 0 0 0 192 0v-29.372a95.671 95.671 0 0 0 -26.9-66.573z" fill="#d65858"/><circle cx="204" cy="412" fill="#f29c9c" r="12"/><path d="m208 440a8 8 0 0 0 -8 8v57.84q7.913 1.766 16 3.042v-60.882a8 8 0 0 0 -8-8z" fill="#bf4b4b"/><path d="m304 440a8 8 0 0 0 -8 8v60.882q8.088-1.269 16-3.042v-57.84a8 8 0 0 0 -8-8z" fill="#bf4b4b"/><path d="m408 208v-13.635q0-.611 0-1.22a17.464 17.464 0 0 0 -17.324-17.288 6.194 6.194 0 0 1 -4.552-4.095 63.918 63.918 0 0 0 -60.724-43.762h-138.8a63.918 63.918 0 0 0 -60.716 43.762 6.194 6.194 0 0 1 -4.552 4.095 17.464 17.464 0 0 0 -17.324 17.288q0 .609 0 1.22v13.635a48 48 0 0 0 0 96h.116a68.09 68.09 0 0 0 67.876 64h168a68.09 68.09 0 0 0 67.884-64h.116a48 48 0 0 0 0-96z" fill="#ffe7de"/><path d="m141.06 176.821a48 48 0 0 1 45.54-32.821h138.8a48 48 0 0 1 45.536 32.821 22.2 22.2 0 0 0 21.064 15.179h15.964a148.085 148.085 0 0 0 -62.945-118.771 21.1 21.1 0 0 1 -9.019-17.229v-8h-160v8a21.1 21.1 0 0 1 -9.019 17.229 148.085 148.085 0 0 0 -62.945 118.771h15.964a22.2 22.2 0 0 0 21.06-15.179z" fill="#525252"/><g fill="#262626"><path d="m240 120a8 8 0 0 1 -8-8v-56a8 8 0 0 1 16 0v56a8 8 0 0 1 -8 8z"/><path d="m208 120a8 8 0 0 1 -8-8v-32a8 8 0 0 1 16 0v32a8 8 0 0 1 -8 8z"/><path d="m272 120a8 8 0 0 1 -8-8v-56a8 8 0 0 1 16 0v56a8 8 0 0 1 -8 8z"/><path d="m304 120a8 8 0 0 1 -8-8v-32a8 8 0 0 1 16 0v32a8 8 0 0 1 -8 8z"/></g><path d="m355.186 81.048a151.789 151.789 0 0 1 -123.186 62.952h93.4a48 48 0 0 1 45.536 32.821 22.2 22.2 0 0 0 21.064 15.179h15.964a148.127 148.127 0 0 0 -52.778-110.952z" fill="#3f3f3f"/><circle cx="168" cy="264" fill="#525252" r="24"/><circle cx="344" cy="264" fill="#525252" r="24"/><path d="m183.915 246.057c.051.641.085 1.288.085 1.943a23.983 23.983 0 0 1 -39.915 17.943 24 24 0 1 0 39.83-19.886z" fill="#3f3f3f"/><path d="m359.915 246.057c.051.641.085 1.288.085 1.943a23.983 23.983 0 0 1 -39.915 17.943 24 24 0 1 0 39.83-19.886z" fill="#3f3f3f"/><circle cx="160" cy="256" fill="#fff" r="8"/><circle cx="336" cy="256" fill="#fff" r="8"/><path d="m408 208v-3.49c-35.837 95.509-127.973 163.49-236 163.49h168a68.089 68.089 0 0 0 67.884-64h.116a48 48 0 0 0 0-96z" fill="#f9d8cd"/><path d="m96 272a8 8 0 1 1 8-8 8.011 8.011 0 0 1 -8 8zm8-64v23.716a8.189 8.189 0 0 1 -7.45 8.265 8.009 8.009 0 0 1 -8.55-7.981v-8a16 16 0 0 1 16-16z" fill="#f4c2b5"/><path d="m416 272a8 8 0 1 1 8-8 8.011 8.011 0 0 1 -8 8zm8-48v7.716a8.189 8.189 0 0 1 -7.45 8.265 8.009 8.009 0 0 1 -8.55-7.981v-24a16 16 0 0 1 16 16z" fill="#f4c2b5"/><circle cx="140" cy="300" fill="#fff5f2" r="12"/><circle cx="164" cy="116" fill="#848484" r="12"/><circle cx="372" cy="300" fill="#fff5f2" r="12"/><path d="m192 224h-48a8 8 0 0 1 0-16h48a8 8 0 0 1 0 16z" fill="#525252"/><path d="m368 224h-48a8 8 0 0 1 0-16h48a8 8 0 0 1 0 16z" fill="#525252"/><path d="m256 312.027a51.2 51.2 0 0 1 -28.437-8.637 8 8 0 1 1 8.875-13.313 35.176 35.176 0 0 0 39.125 0 8 8 0 0 1 8.875 13.313 51.2 51.2 0 0 1 -28.438 8.637z" fill="#f4c2b5"/></svg>