<svg height="512" viewBox="0 0 512 512" width="512" xmlns="http://www.w3.org/2000/svg"><circle cx="256" cy="256" fill="#79d1c9" r="256"/><path d="m426.4 64.974a255.094 255.094 0 0 1 21.6 103.026c0 141.385-114.615 256-256 256a255.026 255.026 0 0 1 -170.4-64.974c39.644 90.074 129.67 152.974 234.4 152.974 141.385 0 256-114.615 256-256a255.348 255.348 0 0 0 -85.6-191.026z" fill="#5fc4b8"/><path d="m352 464a96 96 0 0 0 -192 0v29.372a256.684 256.684 0 0 0 192 0z" fill="#0277bd"/><path d="m256 416a32.036 32.036 0 0 1 -32-32v-32h64v32a32.036 32.036 0 0 1 -32 32z" fill="#f4c2b5"/><path d="m325.1 397.427a136.169 136.169 0 0 1 -165.1 76.59v19.355a256.684 256.684 0 0 0 192 0v-29.372a95.671 95.671 0 0 0 -26.9-66.573z" fill="#0469bc"/><circle cx="204" cy="412" fill="#4baee0" r="12"/><path d="m208 440a8 8 0 0 0 -8 8v57.84q7.913 1.766 16 3.042v-60.882a8 8 0 0 0 -8-8z" fill="#01579b"/><path d="m304 440a8 8 0 0 0 -8 8v60.882q8.088-1.269 16-3.042v-57.84a8 8 0 0 0 -8-8z" fill="#01579b"/><path d="m408 208v-32a8 8 0 0 0 -8-8h-160l-40.816-47.619a24 24 0 0 0 -18.222-8.381h-12.962a16 16 0 0 0 -16 16 40 40 0 0 1 -40 40 8 8 0 0 0 -8 8v32a48 48 0 0 0 0 96h.116a68.09 68.09 0 0 0 67.884 64h168a68.09 68.09 0 0 0 67.884-64h.116a48 48 0 0 0 0-96z" fill="#ffe7de"/><path d="m408 208v-3.49c-35.837 95.509-127.973 163.49-236 163.49h168a68.089 68.089 0 0 0 67.884-64h.116a48 48 0 0 0 0-96z" fill="#f9d8cd"/><circle cx="168" cy="264" fill="#525252" r="24"/><circle cx="344" cy="264" fill="#525252" r="24"/><path d="m183.915 246.057c.051.641.085 1.288.085 1.943a23.983 23.983 0 0 1 -39.915 17.943 24 24 0 1 0 39.83-19.886z" fill="#3f3f3f"/><path d="m359.915 246.057c.051.641.085 1.288.085 1.943a23.983 23.983 0 0 1 -39.915 17.943 24 24 0 1 0 39.83-19.886z" fill="#3f3f3f"/><circle cx="160" cy="256" fill="#fff" r="8"/><circle cx="336" cy="256" fill="#fff" r="8"/><path d="m96 272a8 8 0 1 1 8-8 8.011 8.011 0 0 1 -8 8zm8-64v23.716a8.189 8.189 0 0 1 -7.45 8.265 8.009 8.009 0 0 1 -8.55-7.981v-8a16 16 0 0 1 16-16z" fill="#f4c2b5"/><path d="m416 272a8 8 0 1 1 8-8 8.011 8.011 0 0 1 -8 8zm8-48v7.716a8.189 8.189 0 0 1 -7.45 8.265 8.009 8.009 0 0 1 -8.55-7.981v-24a16 16 0 0 1 16 16z" fill="#f4c2b5"/><circle cx="140" cy="300" fill="#fff5f2" r="12"/><circle cx="372" cy="300" fill="#fff5f2" r="12"/><path d="m192 224h-48a8 8 0 0 1 0-16h48a8 8 0 0 1 0 16z" fill="#525252"/><path d="m368 224h-48a8 8 0 0 1 0-16h48a8 8 0 0 1 0 16z" fill="#525252"/><path d="m256 312.027a51.2 51.2 0 0 1 -28.437-8.637 8 8 0 1 1 8.875-13.313 35.176 35.176 0 0 0 39.125 0 8 8 0 0 1 8.875 13.313 51.2 51.2 0 0 1 -28.438 8.637z" fill="#f4c2b5"/><path d="m112 184a40 40 0 0 0 40-40 16 16 0 0 1 16-16h12.962a24 24 0 0 1 18.222 8.381l26.431 36.019a48 48 0 0 0 38.7 19.6h135.685a8 8 0 0 0 8-8v-32a104 104 0 0 0 -104-104h-80a88.465 88.465 0 0 0 -68 32.141 56.074 56.074 0 0 0 -52 55.859v40a8 8 0 0 0 8 8z" fill="#ffd740"/><path d="m378.13 79.066a184.012 184.012 0 0 1 -149.93 96.522 47.984 47.984 0 0 0 36.113 16.412h135.687a8 8 0 0 0 8-8v-32a103.657 103.657 0 0 0 -29.87-72.934z" fill="#ffc400"/><g fill="#f2b200"><path d="m286.86 190.67a8.006 8.006 0 1 1 5.2-1.93 8 8 0 0 1 -5.2 1.93zm-20.82-24.3a8 8 0 0 1 -6.08-2.79l-26.03-30.37a8 8 0 1 1 12.14-10.42l26.03 30.37a8 8 0 0 1 -6.06 13.21z"/><path d="m327.51 191.43a8.006 8.006 0 1 1 5.2-1.93 8 8 0 0 1 -5.2 1.93zm-20.82-24.3a8.013 8.013 0 0 1 -6.08-2.79l-26.68-31.13a8 8 0 1 1 12.14-10.42l26.69 31.13a8.006 8.006 0 0 1 -6.07 13.21z"/><path d="m367.81 192.36a8.008 8.008 0 1 1 5.21-1.93 7.992 7.992 0 0 1 -5.21 1.93zm-20.82-24.3a7.979 7.979 0 0 1 -6.08-2.79l-27.98-32.65a8 8 0 0 1 12.14-10.41l27.99 32.65a7.994 7.994 0 0 1 -6.07 13.2z"/></g><circle cx="208" cy="80" fill="#ffe7a4" r="16"/><circle cx="252" cy="92" fill="#ffe7a4" r="12"/></svg>