<svg height="512" viewBox="0 0 512 512" width="512" xmlns="http://www.w3.org/2000/svg"><circle cx="256" cy="256" fill="#79d1c9" r="256"/><path d="m426.4 64.974a255.094 255.094 0 0 1 21.6 103.026c0 141.385-114.615 256-256 256a255.026 255.026 0 0 1 -170.4-64.974c39.644 90.074 129.67 152.974 234.4 152.974 141.385 0 256-114.615 256-256a255.348 255.348 0 0 0 -85.6-191.026z" fill="#5fc4b8"/><path d="m352 464a96 96 0 0 0 -192 0v29.372a256.684 256.684 0 0 0 192 0z" fill="#ff9e80"/><path d="m256 416a32.036 32.036 0 0 1 -32-32v-32h64v32a32.036 32.036 0 0 1 -32 32z" fill="#f4c2b5"/><path d="m408 208a80 80 0 0 0 -80-80h-144a80 80 0 0 0 -80 80 48 48 0 0 0 0 96h.116a68.09 68.09 0 0 0 67.884 64h168a68.089 68.089 0 0 0 67.884-64h.116a48 48 0 0 0 0-96z" fill="#ffe7de"/><path d="m144.381 154.222a52.181 52.181 0 0 1 39.619-18.222 32 32 0 0 0 32 32h106.745a109.258 109.258 0 0 1 71.794 26.9 20.5 20.5 0 0 0 13.461 5.1v-16a136 136 0 0 0 -136-136h-43.156a61.761 61.761 0 0 0 -49.024 24.108 80.1 80.1 0 0 0 -75.82 79.892v40a17.393 17.393 0 0 0 13.206-6.074z" fill="#c97e67"/><path d="m325.1 397.427a136.169 136.169 0 0 1 -165.1 76.59v19.355a256.684 256.684 0 0 0 192 0v-29.372a95.671 95.671 0 0 0 -26.9-66.573z" fill="#ff8b6c"/><circle cx="204" cy="412" fill="#ffbdab" r="12"/><path d="m208 440a8 8 0 0 0 -8 8v57.84q7.913 1.766 16 3.042v-60.882a8 8 0 0 0 -8-8z" fill="#ff6e40"/><path d="m304 440a8 8 0 0 0 -8 8v60.882q8.088-1.269 16-3.042v-57.84a8 8 0 0 0 -8-8z" fill="#ff6e40"/><path d="m408 208v-3.49c-35.837 95.509-127.973 163.49-236 163.49h168a68.089 68.089 0 0 0 67.884-64h.116a48 48 0 0 0 0-96z" fill="#f9d8cd"/><circle cx="168" cy="264" fill="#525252" r="24"/><circle cx="344" cy="264" fill="#525252" r="24"/><path d="m183.915 246.057c.051.641.085 1.288.085 1.943a23.983 23.983 0 0 1 -39.915 17.943 24 24 0 1 0 39.83-19.886z" fill="#3f3f3f"/><path d="m359.915 246.057c.051.641.085 1.288.085 1.943a23.983 23.983 0 0 1 -39.915 17.943 24 24 0 1 0 39.83-19.886z" fill="#3f3f3f"/><circle cx="160" cy="256" fill="#fff" r="8"/><circle cx="336" cy="256" fill="#fff" r="8"/><path d="m96 272a8 8 0 1 1 8-8 8.011 8.011 0 0 1 -8 8zm8-64v23.716a8.189 8.189 0 0 1 -7.45 8.265 8.009 8.009 0 0 1 -8.55-7.981v-8a16 16 0 0 1 16-16z" fill="#f4c2b5"/><path d="m416 272a8 8 0 1 1 8-8 8.011 8.011 0 0 1 -8 8zm8-48v7.716a8.189 8.189 0 0 1 -7.45 8.265 8.009 8.009 0 0 1 -8.55-7.981v-24a16 16 0 0 1 16 16z" fill="#f4c2b5"/><circle cx="140" cy="300" fill="#fff5f2" r="12"/><circle cx="372" cy="300" fill="#fff5f2" r="12"/><path d="m192 224h-48a8 8 0 0 1 0-16h48a8 8 0 0 1 0 16z" fill="#525252"/><path d="m368 224h-48a8 8 0 0 1 0-16h48a8 8 0 0 1 0 16z" fill="#525252"/><path d="m256 312.027a51.2 51.2 0 0 1 -28.437-8.637 8 8 0 1 1 8.875-13.313 35.176 35.176 0 0 0 39.125 0 8 8 0 0 1 8.875 13.313 51.2 51.2 0 0 1 -28.438 8.637z" fill="#f4c2b5"/><circle cx="144" cy="112" fill="#e8beb3" r="16"/><circle cx="220" cy="76" fill="#e8beb3" r="12"/><path d="m358.539 79.081a124.094 124.094 0 0 1 -61.584 88.919h25.79a109.258 109.258 0 0 1 71.794 26.9 20.5 20.5 0 0 0 13.461 5.1v-16a135.724 135.724 0 0 0 -49.461-104.919z" fill="#c0694e"/><path d="m353.858 132.2a117.25 117.25 0 0 0 -31.113-4.2h-106.745a24.034 24.034 0 0 1 -23.651-19.951 31.309 31.309 0 0 0 15.651 3.951h119.75a8.163 8.163 0 0 0 8.165-6.814 8 8 0 0 0 -7.915-9.186h-120c-13.153 0-16-12.825-16-16v-3.813a6.768 6.768 0 0 0 -12.074-4.216l-.106.137a4.023 4.023 0 0 0 -3.82 4.036v52.065a7.791 7.791 0 0 0 7.8 7.791h.2l8-.022a39.788 39.788 0 0 0 24 8.022h107.427c9.024 0 17.911 1.619 26.677 3.762a8 8 0 0 0 9.813-6.612 8.18 8.18 0 0 0 -6.059-8.95z" fill="#ae583e"/></svg>