<svg height="512" viewBox="0 0 512 512" width="512" xmlns="http://www.w3.org/2000/svg"><circle cx="256" cy="256" fill="#79d1c9" r="256"/><path d="m426.4 64.974a255.094 255.094 0 0 1 21.6 103.026c0 141.385-114.615 256-256 256a255.026 255.026 0 0 1 -170.4-64.974c39.644 90.074 129.67 152.974 234.4 152.974 141.385 0 256-114.615 256-256a255.348 255.348 0 0 0 -85.6-191.026z" fill="#5fc4b8"/><path d="m352 464a96 96 0 0 0 -192 0v29.372a256.684 256.684 0 0 0 192 0z" fill="#ce93d8"/><path d="m256 416a32.036 32.036 0 0 1 -32-32v-32h64v32a32.036 32.036 0 0 1 -32 32z" fill="#f4c2b5"/><path d="m430.247 224h-38.247v-8a48.055 48.055 0 0 0 -48-48h-56a24.027 24.027 0 0 0 -24 24h-16a24.027 24.027 0 0 0 -24-24h-56a48.055 48.055 0 0 0 -48 48v8h-38.247l-2.4-9.592a133.938 133.938 0 0 1 23.594-114.275 131.4 131.4 0 0 1 101.934-52.1q1.552-.033 3.119-.033h24a31.933 31.933 0 0 1 24 10.856 31.933 31.933 0 0 1 24-10.856h24q1.565 0 3.117.035a131.4 131.4 0 0 1 101.935 52.1 133.932 133.932 0 0 1 23.592 114.274z" fill="#525252"/><path d="m409.052 100.134a134.273 134.273 0 0 0 -18.463-19.734 181.868 181.868 0 0 1 -89.207 87.6h42.618a48.055 48.055 0 0 1 48 48v8h38.247l2.4-9.592a133.932 133.932 0 0 0 -23.595-114.274z" fill="#3f3f3f"/><path d="m256 58.856a32.218 32.218 0 0 0 -8-6.552v139.696h16v-139.7a32.218 32.218 0 0 0 -8 6.556z" fill="#262626"/><path d="m340 368h-168a68.089 68.089 0 0 1 -67.884-64h-.116a48 48 0 0 1 0-96h.5a64.1 64.1 0 0 1 63.5-56h56a39.965 39.965 0 0 1 32 16.025 39.965 39.965 0 0 1 32-16.025h56a64.1 64.1 0 0 1 63.5 56h.5a48 48 0 0 1 0 96h-.116a68.089 68.089 0 0 1 -67.884 64z" fill="#ffe7de"/><g fill="#262626"><path d="m426.922 192a8 8 0 0 1 -7.535-5.315c-10.978-30.785-40.569-50.685-75.387-50.685h-56a8 8 0 0 1 0-16h56c41.672 0 77.179 24.067 90.457 61.313a8 8 0 0 1 -7.535 10.687z"/><path d="m85.08 192a8 8 0 0 1 -7.54-10.69c9.279-26.05 29.91-46.34 56.62-55.66a7.913 7.913 0 0 1 2.64-.45 8 8 0 0 1 2.639 15.56c-22.1 7.76-39.169 24.5-46.83 45.93a8 8 0 0 1 -7.529 5.31zm138.92-56h-23.79a8 8 0 0 1 0-16h23.79a8 8 0 0 1 0 16zm-55.79 0a8 8 0 1 1 8-8 8.011 8.011 0 0 1 -8 8z"/><path d="m416.01 136.15a7.967 7.967 0 0 1 -6.66-3.56c-14.73-22.23-43.44-36.59-73.15-36.59h-16.15a8 8 0 0 1 0-16h15.95a111.746 111.746 0 0 1 49.29 11.58 96.543 96.543 0 0 1 37.35 32.1l.009.02a8.006 8.006 0 0 1 -6.639 12.45zm-127.96-40.15a8 8 0 1 1 8-8 8.011 8.011 0 0 1 -8 8z"/><path d="m95.992 136.148a8 8 0 0 1 -6.644-12.448c17.732-26.545 51.745-43.7 86.652-43.7h48a8 8 0 0 1 0 16h-48c-29.711 0-58.5 14.363-73.348 36.591a7.991 7.991 0 0 1 -6.66 3.557z"/></g><path d="m325.1 397.427a136.169 136.169 0 0 1 -165.1 76.59v19.355a256.684 256.684 0 0 0 192 0v-29.372a95.671 95.671 0 0 0 -26.9-66.573z" fill="#c087cc"/><circle cx="204" cy="412" fill="#e2b9ea" r="12"/><path d="m208 440a8 8 0 0 0 -8 8v57.84q7.913 1.766 16 3.042v-60.882a8 8 0 0 0 -8-8z" fill="#ba68c8"/><path d="m304 440a8 8 0 0 0 -8 8v60.882q8.088-1.269 16-3.042v-57.84a8 8 0 0 0 -8-8z" fill="#ba68c8"/><path d="m408 208v-3.49c-35.837 95.509-127.973 163.49-236 163.49h168a68.089 68.089 0 0 0 67.884-64h.116a48 48 0 0 0 0-96z" fill="#f9d8cd"/><circle cx="168" cy="264" fill="#525252" r="24"/><circle cx="344" cy="264" fill="#525252" r="24"/><path d="m183.915 246.057c.051.641.085 1.288.085 1.943a23.983 23.983 0 0 1 -39.915 17.943 24 24 0 1 0 39.83-19.886z" fill="#3f3f3f"/><path d="m359.915 246.057c.051.641.085 1.288.085 1.943a23.983 23.983 0 0 1 -39.915 17.943 24 24 0 1 0 39.83-19.886z" fill="#3f3f3f"/><circle cx="160" cy="256" fill="#fff" r="8"/><circle cx="336" cy="256" fill="#fff" r="8"/><path d="m96 272a8 8 0 1 1 8-8 8.011 8.011 0 0 1 -8 8zm8-64v23.716a8.189 8.189 0 0 1 -7.45 8.265 8.009 8.009 0 0 1 -8.55-7.981v-8a16 16 0 0 1 16-16z" fill="#f4c2b5"/><path d="m416 272a8 8 0 1 1 8-8 8.011 8.011 0 0 1 -8 8zm8-48v7.716a8.189 8.189 0 0 1 -7.45 8.265 8.009 8.009 0 0 1 -8.55-7.981v-24a16 16 0 0 1 16 16z" fill="#f4c2b5"/><circle cx="140" cy="300" fill="#fff5f2" r="12"/><circle cx="372" cy="300" fill="#fff5f2" r="12"/><path d="m192 224h-48a8 8 0 0 1 0-16h48a8 8 0 0 1 0 16z" fill="#525252"/><path d="m368 224h-48a8 8 0 0 1 0-16h48a8 8 0 0 1 0 16z" fill="#525252"/><path d="m256 312.027a51.2 51.2 0 0 1 -28.438-8.637 8 8 0 0 1 8.875-13.313 35.176 35.176 0 0 0 39.125 0 8 8 0 0 1 8.875 13.313 51.2 51.2 0 0 1 -28.437 8.637z" fill="#f4c2b5"/></svg>