<svg height="512" viewBox="0 0 512 512" width="512" xmlns="http://www.w3.org/2000/svg"><circle cx="256" cy="256" fill="#79d1c9" r="256"/><path d="m426.4 64.974a255.094 255.094 0 0 1 21.6 103.026c0 141.385-114.615 256-256 256a255.026 255.026 0 0 1 -170.4-64.974c39.644 90.074 129.67 152.974 234.4 152.974 141.385 0 256-114.615 256-256a255.348 255.348 0 0 0 -85.6-191.026z" fill="#5fc4b8"/><path d="m352 464a96 96 0 0 0 -192 0v29.372a256.684 256.684 0 0 0 192 0z" fill="#c97e67"/><path d="m256 416a32.036 32.036 0 0 1 -32-32v-32h64v32a32.036 32.036 0 0 1 -32 32z" fill="#f4c2b5"/><path d="m256 48c-83.813 0-152 68.187-152 152v24h304v-24c0-83.813-68.187-152-152-152z" fill="#ffd740"/><path d="m350.248 80.833a176.2 176.2 0 0 1 -121.642 143.167h179.394v-24a151.8 151.8 0 0 0 -57.752-119.167z" fill="#ffc400"/><path d="m340 368h-168a68.089 68.089 0 0 1 -67.884-64h-.116a48 48 0 0 1 0-96h.5a64.1 64.1 0 0 1 63.5-56h16a56.354 56.354 0 0 1 33.6 11.2 64 64 0 0 0 76.8 0 56.354 56.354 0 0 1 33.6-11.2h16a64.1 64.1 0 0 1 63.5 56h.5a48 48 0 0 1 0 96h-.116a68.089 68.089 0 0 1 -67.884 64z" fill="#ffe7de"/><g fill="#f2b200"><path d="m224 112h-16a8 8 0 0 0 0 16h16a8 8 0 0 0 0-16z"/><path d="m336 120h-16a8 8 0 0 0 0 16h16a8 8 0 0 0 0-16z"/><path d="m304 96h-16a8 8 0 0 0 0 16h16a8 8 0 0 0 0-16z"/><path d="m260.439 81.35a7.8 7.8 0 0 0 -2.879-1.19 7.809 7.809 0 0 0 -3.121 0 7.893 7.893 0 0 0 -1.5.45 7.986 7.986 0 0 0 -1.379.74 7.589 7.589 0 0 0 -2.21 2.21 8.032 8.032 0 0 0 -.741 1.38 7.919 7.919 0 0 0 -.449 1.5 7.685 7.685 0 0 0 0 3.12 7.919 7.919 0 0 0 .449 1.5 8.032 8.032 0 0 0 .741 1.38 7.589 7.589 0 0 0 2.21 2.21 7.986 7.986 0 0 0 1.379.74 7.893 7.893 0 0 0 1.5.45 7.69 7.69 0 0 0 3.121 0 7.8 7.8 0 0 0 2.879-1.19 7.178 7.178 0 0 0 1.21-.99 7.989 7.989 0 0 0 0-11.32 7.178 7.178 0 0 0 -1.21-.99z"/><path d="m278.439 128.16a7.893 7.893 0 0 0 -1.5.45 7.986 7.986 0 0 0 -1.379.74 8.375 8.375 0 0 0 -1.22.99 8.05 8.05 0 0 0 -2.34 5.66 7.443 7.443 0 0 0 .16 1.56 7.919 7.919 0 0 0 .449 1.5 8.032 8.032 0 0 0 .741 1.38 7.766 7.766 0 0 0 .99 1.22 8 8 0 0 0 11.309 0 7.771 7.771 0 0 0 1-1.22 8.032 8.032 0 0 0 .741-1.38 7.85 7.85 0 0 0 .45-1.5 7.443 7.443 0 0 0 .16-1.56 8 8 0 0 0 -9.561-7.84z"/><path d="m175.39 124.94a8.032 8.032 0 0 0 -.741-1.38 8.369 8.369 0 0 0 -.989-1.22 7.728 7.728 0 0 0 -1.221-.99 7.8 7.8 0 0 0 -2.879-1.19 7.809 7.809 0 0 0 -3.121 0 7.893 7.893 0 0 0 -1.5.45 7.986 7.986 0 0 0 -1.379.74 7.589 7.589 0 0 0 -2.21 2.21 8.032 8.032 0 0 0 -.741 1.38 7.919 7.919 0 0 0 -.449 1.5 7.685 7.685 0 0 0 0 3.12 7.919 7.919 0 0 0 .449 1.5 8.032 8.032 0 0 0 .741 1.38 7.589 7.589 0 0 0 2.21 2.21 7.986 7.986 0 0 0 1.379.74 7.893 7.893 0 0 0 1.5.45 7.69 7.69 0 0 0 3.121 0 7.8 7.8 0 0 0 2.879-1.19 7.728 7.728 0 0 0 1.221-.99 8.369 8.369 0 0 0 .989-1.22 8.032 8.032 0 0 0 .741-1.38 7.85 7.85 0 0 0 .45-1.5 7.685 7.685 0 0 0 0-3.12 7.85 7.85 0 0 0 -.45-1.5z"/></g><path d="m325.1 397.427a136.169 136.169 0 0 1 -165.1 76.59v19.355a256.684 256.684 0 0 0 192 0v-29.372a95.671 95.671 0 0 0 -26.9-66.573z" fill="#c0694e"/><circle cx="204" cy="412" fill="#e8beb3" r="12"/><path d="m208 440a8 8 0 0 0 -8 8v57.84q7.913 1.766 16 3.042v-60.882a8 8 0 0 0 -8-8z" fill="#ae583e"/><path d="m304 440a8 8 0 0 0 -8 8v60.882q8.088-1.269 16-3.042v-57.84a8 8 0 0 0 -8-8z" fill="#ae583e"/><path d="m408 208v-3.49c-35.837 95.509-127.973 163.49-236 163.49h168a68.089 68.089 0 0 0 67.884-64h.116a48 48 0 0 0 0-96z" fill="#f9d8cd"/><circle cx="168" cy="264" fill="#525252" r="24"/><circle cx="344" cy="264" fill="#525252" r="24"/><path d="m183.915 246.057c.051.641.085 1.288.085 1.943a23.983 23.983 0 0 1 -39.915 17.943 24 24 0 1 0 39.83-19.886z" fill="#3f3f3f"/><path d="m359.915 246.057c.051.641.085 1.288.085 1.943a23.983 23.983 0 0 1 -39.915 17.943 24 24 0 1 0 39.83-19.886z" fill="#3f3f3f"/><circle cx="160" cy="256" fill="#fff" r="8"/><circle cx="336" cy="256" fill="#fff" r="8"/><path d="m96 272a8 8 0 1 1 8-8 8.011 8.011 0 0 1 -8 8zm8-64v23.716a8.189 8.189 0 0 1 -7.45 8.265 8.009 8.009 0 0 1 -8.55-7.981v-8a16 16 0 0 1 16-16z" fill="#f4c2b5"/><path d="m416 272a8 8 0 1 1 8-8 8.011 8.011 0 0 1 -8 8zm8-48v7.716a8.189 8.189 0 0 1 -7.45 8.265 8.009 8.009 0 0 1 -8.55-7.981v-24a16 16 0 0 1 16 16z" fill="#f4c2b5"/><circle cx="140" cy="300" fill="#fff5f2" r="12"/><circle cx="204" cy="84" fill="#ffe7a4" r="12"/><circle cx="372" cy="300" fill="#fff5f2" r="12"/><path d="m192 224h-48a8 8 0 0 1 0-16h48a8 8 0 0 1 0 16z" fill="#525252"/><path d="m368 224h-48a8 8 0 0 1 0-16h48a8 8 0 0 1 0 16z" fill="#525252"/><path d="m256 312.027a51.2 51.2 0 0 1 -28.437-8.637 8 8 0 1 1 8.875-13.313 35.176 35.176 0 0 0 39.125 0 8 8 0 0 1 8.875 13.313 51.2 51.2 0 0 1 -28.438 8.637z" fill="#f4c2b5"/></svg>