<svg height="512" viewBox="0 0 512 512" width="512" xmlns="http://www.w3.org/2000/svg"><circle cx="256" cy="256" fill="#ff9e80" r="256"/><path d="m426.4 64.974a255.094 255.094 0 0 1 21.6 103.026c0 141.385-114.615 256-256 256a255.026 255.026 0 0 1 -170.4-64.974c39.644 90.074 129.67 152.974 234.4 152.974 141.385 0 256-114.615 256-256a255.348 255.348 0 0 0 -85.6-191.026z" fill="#ff8b6c"/><path d="m352 464a96 96 0 0 0 -192 0v29.372a256.684 256.684 0 0 0 192 0z" fill="#ce93d8"/><path d="m256 416a32.036 32.036 0 0 1 -32-32v-32h64v32a32.036 32.036 0 0 1 -32 32z" fill="#f4c2b5"/><path d="m376 192h-72v-60a52 52 0 0 1 104 0v28a32.036 32.036 0 0 1 -32 32z" fill="#ffd740"/><path d="m408 240v64a68.2 68.2 0 0 1 -68 64h-168a68.2 68.2 0 0 1 -68-64v-64z" fill="#848484"/><path d="m408 304v-64h-16.6a251.888 251.888 0 0 1 -219.4 128h168a68.2 68.2 0 0 0 68-64z" fill="#525252"/><path d="m256 307.042a25.987 25.987 0 0 1 -14.437-4.386 8 8 0 1 1 8.875-13.312 10 10 0 0 0 11.125 0 8 8 0 0 1 8.875 13.312 25.99 25.99 0 0 1 -14.438 4.386z" fill="#f4c2b5"/><path d="m456 256a48.055 48.055 0 0 0 -48-48v-8a48 48 0 0 0 -48-48h-240a16 16 0 0 0 -16 16v40a48 48 0 0 0 0 96c3.552 13.8 17.089 24 32 24h56a24 24 0 0 0 24-24 40 40 0 0 1 40-40 40 40 0 0 1 40 40 24 24 0 0 0 24 24h56c14.911 0 28.448-10.2 32-24a48.055 48.055 0 0 0 48-48z" fill="#ffe7de"/><path d="m310.963 326.234a23.925 23.925 0 0 0 9.037 1.766h56c14.911 0 28.448-10.2 32-24a48 48 0 0 0 0-96v-3.49a252.808 252.808 0 0 1 -97.037 121.724z" fill="#f9d8cd"/><path d="m329.866 192h-185.866c-29.2 0-64-12.491-64-72v-8a40.347 40.347 0 0 1 25.647 9.3c6.722 5.54 15.031 11.1 19.763 11.424a5.744 5.744 0 0 0 4.568-1.661c18.891-25.307 59.016-67.063 118.022-67.063 54.111 0 95.3 42.2 112.123 84.019a32.027 32.027 0 0 1 -5.532 32.981 32.623 32.623 0 0 1 -24.725 11z" fill="#ffd740"/><path d="m360.123 148.019a148.309 148.309 0 0 0 -33.564-50.053 112.024 112.024 0 0 1 -110.559 94.034h113.866a32.623 32.623 0 0 0 24.725-11 32.027 32.027 0 0 0 5.532-32.981z" fill="#ffc400"/><circle cx="208" cy="112" fill="#ffe7a4" r="24"/><circle cx="252" cy="132" fill="#ffe7a4" r="12"/><path d="m96 272a8 8 0 1 1 8-8 8.011 8.011 0 0 1 -8 8zm8-64v23.716a8.189 8.189 0 0 1 -7.45 8.265 8.009 8.009 0 0 1 -8.55-7.981v-8a16 16 0 0 1 16-16z" fill="#f4c2b5"/><path d="m416 272a8 8 0 1 1 8-8 8.011 8.011 0 0 1 -8 8zm8-48v7.716a8.189 8.189 0 0 1 -7.45 8.265 8.009 8.009 0 0 1 -8.55-7.981v-24a16 16 0 0 1 16 16z" fill="#f4c2b5"/><circle cx="140" cy="300" fill="#fff5f2" r="12"/><circle cx="372" cy="300" fill="#fff5f2" r="12"/><circle cx="204" cy="412" fill="#e2b9ea" r="12"/><circle cx="168" cy="264" fill="#525252" r="24"/><circle cx="344" cy="264" fill="#525252" r="24"/><path d="m183.915 246.057c.051.641.085 1.288.085 1.943a23.983 23.983 0 0 1 -39.915 17.943 24 24 0 1 0 39.83-19.886z" fill="#3f3f3f"/><path d="m359.915 246.057c.051.641.085 1.288.085 1.943a23.983 23.983 0 0 1 -39.915 17.943 24 24 0 1 0 39.83-19.886z" fill="#3f3f3f"/><circle cx="160" cy="256" fill="#fff" r="8"/><circle cx="336" cy="256" fill="#fff" r="8"/><path d="m192 224h-48a8 8 0 0 1 0-16h48a8 8 0 0 1 0 16z" fill="#525252"/><path d="m368 224h-48a8 8 0 0 1 0-16h48a8 8 0 0 1 0 16z" fill="#525252"/><path d="m325.1 397.427a136.169 136.169 0 0 1 -165.1 76.59v19.355a256.684 256.684 0 0 0 192 0v-29.372a95.671 95.671 0 0 0 -26.9-66.573z" fill="#c087cc"/><g fill="#ba68c8"><path d="m208 440a8 8 0 0 0 -8 8v57.84q7.913 1.766 16 3.042v-60.882a8 8 0 0 0 -8-8z"/><path d="m304 440a8 8 0 0 0 -8 8v60.882q8.088-1.269 16-3.042v-57.84a8 8 0 0 0 -8-8z"/></g></svg>