<svg height="512" viewBox="0 0 512 512" width="512" xmlns="http://www.w3.org/2000/svg"><circle cx="256" cy="256" fill="#ff9e80" r="256"/><path d="m426.4 64.974a255.094 255.094 0 0 1 21.6 103.026c0 141.385-114.615 256-256 256a255.026 255.026 0 0 1 -170.4-64.974c39.644 90.074 129.67 152.974 234.4 152.974 141.385 0 256-114.615 256-256a255.348 255.348 0 0 0 -85.6-191.026z" fill="#ff8b6c"/><path d="m408 224h-304v-112a32 32 0 0 1 20.937-30.027l131.063-48.286 131.063 48.286a32 32 0 0 1 20.937 30.027z" fill="#525252"/><path d="m387.063 81.973-36.427-13.42a177.065 177.065 0 0 1 -151.8 85.78v69.667h209.164v-112a32 32 0 0 0 -20.937-30.027z" fill="#3f3f3f"/><path d="m352 464a96 96 0 0 0 -192 0v29.372a256.684 256.684 0 0 0 192 0z" fill="#c97e67"/><path d="m325.1 397.427a136.169 136.169 0 0 1 -165.1 76.59v19.355a256.684 256.684 0 0 0 192 0v-29.372a95.671 95.671 0 0 0 -26.9-66.573z" fill="#c0694e"/><path d="m208 440a8 8 0 0 0 -8 8v57.84q7.913 1.766 16 3.042v-60.882a8 8 0 0 0 -8-8z" fill="#ae583e"/><path d="m304 440a8 8 0 0 0 -8 8v60.882q8.088-1.269 16-3.042v-57.84a8 8 0 0 0 -8-8z" fill="#ae583e"/><path d="m340 368h-168a68.089 68.089 0 0 1 -67.884-64h-.116a48 48 0 0 1 0-96v-24a56.063 56.063 0 0 1 56-56h48a56.029 56.029 0 0 1 48 27.18 56.029 56.029 0 0 1 48-27.18h48a56.063 56.063 0 0 1 56 56v24a48 48 0 0 1 0 96h-.116a68.089 68.089 0 0 1 -67.884 64z" fill="#ffe7de"/><path d="m408 208v-3.49c-35.837 95.509-127.973 163.49-236 163.49h168a68.089 68.089 0 0 0 67.884-64h.116a48 48 0 0 0 0-96z" fill="#f9d8cd"/><path d="m96 272a8 8 0 1 1 8-8 8.011 8.011 0 0 1 -8 8zm8-64v23.716a8.189 8.189 0 0 1 -7.45 8.265 8.009 8.009 0 0 1 -8.55-7.981v-8a16 16 0 0 1 16-16z" fill="#f4c2b5"/><path d="m416 272a8 8 0 1 1 8-8 8.011 8.011 0 0 1 -8 8zm8-48v7.716a8.189 8.189 0 0 1 -7.45 8.265 8.009 8.009 0 0 1 -8.55-7.981v-24a16 16 0 0 1 16 16z" fill="#f4c2b5"/><circle cx="140" cy="300" fill="#fff5f2" r="12"/><circle cx="372" cy="300" fill="#fff5f2" r="12"/><path d="m256 312.027a51.2 51.2 0 0 1 -28.438-8.637 8 8 0 0 1 8.875-13.313 35.176 35.176 0 0 0 39.125 0 8 8 0 0 1 8.875 13.313 51.2 51.2 0 0 1 -28.437 8.637z" fill="#f4c2b5"/><circle cx="168" cy="264" fill="#525252" r="24"/><circle cx="344" cy="264" fill="#525252" r="24"/><path d="m183.915 246.057c.051.641.085 1.288.085 1.943a23.983 23.983 0 0 1 -39.915 17.943 24 24 0 1 0 39.83-19.886z" fill="#3f3f3f"/><path d="m359.915 246.057c.051.641.085 1.288.085 1.943a23.983 23.983 0 0 1 -39.915 17.943 24 24 0 1 0 39.83-19.886z" fill="#3f3f3f"/><circle cx="160" cy="256" fill="#fff" r="8"/><circle cx="336" cy="256" fill="#fff" r="8"/><path d="m192 224h-48a8 8 0 0 1 0-16h48a8 8 0 0 1 0 16z" fill="#525252"/><path d="m368 224h-48a8 8 0 0 1 0-16h48a8 8 0 0 1 0 16z" fill="#525252"/><path d="m255.861 432.717-62.55-28.274a56.627 56.627 0 0 1 -33.311-51.466v-.187a31.557 31.557 0 0 1 15.2-27.1 32.055 32.055 0 0 1 31.537-1.185 107.351 107.351 0 0 0 49.263 11.942 128.816 128.816 0 0 0 57.687-13.07 32 32 0 0 1 31.267 1.483 31.613 31.613 0 0 1 15.046 27.013 56.374 56.374 0 0 1 -34.967 52.184z" fill="#525252"/><path d="m344.954 324.86c-.9-.561-1.833-1.058-2.773-1.523a136.092 136.092 0 0 1 -175.611 55.963 56.7 56.7 0 0 0 26.741 25.139l62.55 28.274 69.172-28.66a56.374 56.374 0 0 0 34.967-52.18 31.613 31.613 0 0 0 -15.046-27.013z" fill="#3f3f3f"/><circle cx="132" cy="100" fill="#848484" r="12"/><circle cx="188" cy="348" fill="#848484" r="12"/><g fill="#262626"><path d="m256 112a8 8 0 0 1 -8-8v-56a8 8 0 0 1 16 0v56a8 8 0 0 1 -8 8z"/><path d="m288 112a8 8 0 0 1 -8-8v-40a8 8 0 0 1 16 0v40a8 8 0 0 1 -8 8z"/><path d="m320 112a8 8 0 0 1 -8-8v-32a8 8 0 0 1 16 0v32a8 8 0 0 1 -8 8z"/><path d="m352 112a8 8 0 0 1 -8-8v-24a8 8 0 0 1 16 0v24a8 8 0 0 1 -8 8z"/><path d="m224 112a8 8 0 0 1 -8-8v-40a8 8 0 0 1 16 0v40a8 8 0 0 1 -8 8z"/><path d="m192 112a8 8 0 0 1 -8-8v-32a8 8 0 0 1 16 0v32a8 8 0 0 1 -8 8z"/><path d="m160 112a8 8 0 0 1 -8-8v-24a8 8 0 0 1 16 0v24a8 8 0 0 1 -8 8z"/><path d="m264 376v53.35l-8.14 3.37-7.86-3.55v-53.17a8 8 0 0 1 16 0z"/><path d="m296 376v40.09l-16 6.63v-46.72a8 8 0 0 1 16 0z"/><path d="m232 376v45.93l-16-7.23v-38.7a8 8 0 0 1 16 0z"/></g></svg>