<svg height="512" viewBox="0 0 512 512" width="512" xmlns="http://www.w3.org/2000/svg"><circle cx="256" cy="256" fill="#79d1c9" r="256"/><path d="m426.4 64.974a255.094 255.094 0 0 1 21.6 103.026c0 141.385-114.615 256-256 256a255.026 255.026 0 0 1 -170.4-64.974c39.644 90.074 129.67 152.974 234.4 152.974 141.385 0 256-114.615 256-256a255.348 255.348 0 0 0 -85.6-191.026z" fill="#5fc4b8"/><path d="m352 464a96 96 0 0 0 -192 0v29.372a256.684 256.684 0 0 0 192 0z" fill="#ff9e80"/><path d="m256 416a32.036 32.036 0 0 1 -32-32v-32h64v32a32.036 32.036 0 0 1 -32 32z" fill="#f4c2b5"/><path d="m340 368h-168a68.089 68.089 0 0 1 -67.884-64h-.116a48 48 0 0 1 0-96v-44.707l34.155-18.976a73.614 73.614 0 0 0 37.845-64.317h16v24a24.028 24.028 0 0 0 24 24h106.745c10.18 0 30.687 3.207 41.137 9 15.172 8.419 39.619 38.576 42.357 41.987l1.761 2.2v26.813a48 48 0 0 1 0 96h-.116a68.089 68.089 0 0 1 -67.884 64z" fill="#ffe7de"/><path d="m104 181.6v-29.6a80.091 80.091 0 0 1 80-80h8v8a89.624 89.624 0 0 1 -46.075 78.3z" fill="#c0694e"/><path d="m408 206.742-14.238-17.734c-6.9-8.59-27.106-32.165-37.644-38.013-6.789-3.767-24.025-7-33.373-7h-106.745a40.045 40.045 0 0 1 -40-40v-26.417l1.344-2.015a61.773 61.773 0 0 1 51.501-27.563h43.155c74.99 0 136 61.01 136 136z" fill="#c97e67"/><path d="m348.987 71.953a96.04 96.04 0 0 1 -92.987 72.047h66.745c9.348 0 26.584 3.228 33.373 7 10.538 5.848 30.746 29.423 37.644 38.013l14.238 17.729v-22.742a135.95 135.95 0 0 0 -59.013-112.047z" fill="#c0694e"/><circle cx="224" cy="72" fill="#e8beb3" r="16"/><circle cx="268" cy="76" fill="#e8beb3" r="12"/><path d="m325.1 397.427a136.169 136.169 0 0 1 -165.1 76.59v19.355a256.684 256.684 0 0 0 192 0v-29.372a95.671 95.671 0 0 0 -26.9-66.573z" fill="#ff8b6c"/><circle cx="204" cy="412" fill="#ffbdab" r="12"/><path d="m208 440a8 8 0 0 0 -8 8v57.84q7.913 1.766 16 3.042v-60.882a8 8 0 0 0 -8-8z" fill="#ff6e40"/><path d="m304 440a8 8 0 0 0 -8 8v60.882q8.088-1.269 16-3.042v-57.84a8 8 0 0 0 -8-8z" fill="#ff6e40"/><path d="m408 208v-3.49c-35.837 95.509-127.973 163.49-236 163.49h168a68.089 68.089 0 0 0 67.884-64h.116a48 48 0 0 0 0-96z" fill="#f9d8cd"/><path d="m96 272a8 8 0 1 1 8-8 8.011 8.011 0 0 1 -8 8zm8-64v23.716a8.189 8.189 0 0 1 -7.45 8.265 8.009 8.009 0 0 1 -8.55-7.981v-8a16 16 0 0 1 16-16z" fill="#f4c2b5"/><path d="m416 272a8 8 0 1 1 8-8 8.011 8.011 0 0 1 -8 8zm8-48v7.716a8.189 8.189 0 0 1 -7.45 8.265 8.009 8.009 0 0 1 -8.55-7.981v-24a16 16 0 0 1 16 16z" fill="#f4c2b5"/><circle cx="140" cy="300" fill="#fff5f2" r="12"/><circle cx="372" cy="300" fill="#fff5f2" r="12"/><path d="m328 112h-120c-21.83 0-32-19.095-32-32a8 8 0 0 1 16 0c0 3.175 2.847 16 16 16h120a8 8 0 0 1 0 16z" fill="#ae583e"/><g fill="#3f3f3f"><circle cx="192" cy="216" r="24"/><circle cx="320" cy="216" r="24"/><path d="m272 208h-32c-4.418 0-4.418 16 0 16h32c4.418 0 4.418-16 0-16z"/><path d="m408 208h-40c-4.418 0-4.418 16 0 16h40a8 8 0 0 0 0-16z"/><path d="m144 208h-40a8 8 0 0 0 0 16h40c4.418 0 4.418-16 0-16z"/></g><path d="m192 272a56 56 0 1 1 56-56 56.063 56.063 0 0 1 -56 56zm0-96a40 40 0 1 0 40 40 40.045 40.045 0 0 0 -40-40z" fill="#525252"/><path d="m320 272a56 56 0 1 1 56-56 56.063 56.063 0 0 1 -56 56zm0-96a40 40 0 1 0 40 40 40.045 40.045 0 0 0 -40-40z" fill="#525252"/><circle cx="184" cy="208" fill="#fff" r="8"/><circle cx="312" cy="208" fill="#fff" r="8"/><path d="m207.915 198.057c.051.641.085 1.288.085 1.943a23.983 23.983 0 0 1 -39.915 17.943 24 24 0 1 0 39.83-19.886z" fill="#262626"/><path d="m335.915 198.057c.051.641.085 1.288.085 1.943a23.983 23.983 0 0 1 -39.915 17.943 24 24 0 1 0 39.83-19.886z" fill="#262626"/><path d="m238.775 336h-38.775a24.027 24.027 0 0 1 -24-24v-5.2l48.628-21.613a28 28 0 0 1 39.372 25.588 25.254 25.254 0 0 1 -25.225 25.225z" fill="#c97e67"/><path d="m251.258 287.3a27.992 27.992 0 0 0 -11.769-4.307 52.252 52.252 0 0 1 -51.739 45.007h-5.619a23.941 23.941 0 0 0 17.869 8h38.775a25.254 25.254 0 0 0 25.225-25.225 27.907 27.907 0 0 0 -12.742-23.475z" fill="#c0694e"/><path d="m312 336h-38.775a25.254 25.254 0 0 1 -25.225-25.225 28 28 0 0 1 39.372-25.587l48.628 21.612v5.2a24.027 24.027 0 0 1 -24 24z" fill="#c97e67"/><path d="m311.843 296.064a43.494 43.494 0 0 1 -40.664 39.846c.675.054 1.356.09 2.046.09h38.775a24.027 24.027 0 0 0 24-24v-5.2z" fill="#c0694e"/><circle cx="272" cy="304" fill="#e8beb3" r="8"/></svg>