<svg height="512" viewBox="0 0 512 512" width="512" xmlns="http://www.w3.org/2000/svg"><circle cx="256" cy="256" fill="#ff9e80" r="256"/><path d="m426.4 64.974a255.094 255.094 0 0 1 21.6 103.026c0 141.385-114.615 256-256 256a255.026 255.026 0 0 1 -170.4-64.974c39.644 90.074 129.67 152.974 234.4 152.974 141.385 0 256-114.615 256-256a255.348 255.348 0 0 0 -85.6-191.026z" fill="#ff8b6c"/><path d="m352 464a96 96 0 0 0 -192 0v29.372a256.684 256.684 0 0 0 192 0z" fill="#e56161"/><path d="m256 416a32.036 32.036 0 0 1 -32-32v-32h64v32a32.036 32.036 0 0 1 -32 32z" fill="#f4c2b5"/><path d="m120.853 200.083a15.973 15.973 0 0 1 -15.831-17.744 151.385 151.385 0 0 1 21.859-62.578 66.874 66.874 0 0 1 49.84-31.374 41.062 41.062 0 0 1 25.679-30.664 151.638 151.638 0 0 1 56.883-9.689c76.814 1.611 138.961 60.8 147.673 135.441a16.029 16.029 0 0 1 -15.969 17.931z" fill="#525252"/><path d="m323.6 63.887a175.841 175.841 0 0 1 -147.6 80.113 175.749 175.749 0 0 1 -57.179-9.5 151.627 151.627 0 0 0 -13.762 47.545 16.029 16.029 0 0 0 15.888 17.955h270.111a15.99 15.99 0 0 0 15.9-17.811 152.357 152.357 0 0 0 -83.358-118.302z" fill="#3f3f3f"/><path d="m408 208v-8a153.231 153.231 0 0 0 -.841-16h-23.159a38.832 38.832 0 0 1 -34.733-21.466 48 48 0 0 0 -42.933-26.534h-2.334a48 48 0 0 0 -48 48 48 48 0 0 0 -48-48h-2.334a48 48 0 0 0 -42.933 26.534 38.832 38.832 0 0 1 -34.733 21.466h-23.16a152.932 152.932 0 0 0 -.84 16v8a48 48 0 0 0 0 96h.116a68.09 68.09 0 0 0 67.884 64h168a68.09 68.09 0 0 0 67.884-64h.116a48 48 0 0 0 0-96z" fill="#ffe7de"/><path d="m424 192h-40a46.575 46.575 0 0 1 -41.888-25.889 39.785 39.785 0 0 0 -35.778-22.111h-2.334a40.045 40.045 0 0 0 -40 40h-16a40.045 40.045 0 0 0 -40-40h-2.334a39.785 39.785 0 0 0 -35.778 22.111 46.575 46.575 0 0 1 -41.888 25.889h-40a8 8 0 0 1 0-16h40a30.666 30.666 0 0 0 27.578-17.044 55.694 55.694 0 0 1 50.088-30.956h2.334a56.029 56.029 0 0 1 48 27.18 56.029 56.029 0 0 1 48-27.18h2.334a55.694 55.694 0 0 1 50.088 30.956 30.666 30.666 0 0 0 27.578 17.044h40a8 8 0 0 1 0 16z" fill="#262626"/><path d="m325.1 397.427a136.169 136.169 0 0 1 -165.1 76.59v19.355a256.684 256.684 0 0 0 192 0v-29.372a95.671 95.671 0 0 0 -26.9-66.573z" fill="#d65858"/><circle cx="204" cy="412" fill="#f29c9c" r="12"/><path d="m208 440a8 8 0 0 0 -8 8v57.84q7.913 1.766 16 3.042v-60.882a8 8 0 0 0 -8-8z" fill="#bf4b4b"/><path d="m304 440a8 8 0 0 0 -8 8v60.882q8.088-1.269 16-3.042v-57.84a8 8 0 0 0 -8-8z" fill="#bf4b4b"/><path d="m408 208v-3.49c-35.837 95.509-127.973 163.49-236 163.49h168a68.089 68.089 0 0 0 67.884-64h.116a48 48 0 0 0 0-96z" fill="#f9d8cd"/><circle cx="168" cy="264" fill="#525252" r="24"/><circle cx="344" cy="264" fill="#525252" r="24"/><path d="m183.915 246.057c.051.641.085 1.288.085 1.943a23.983 23.983 0 0 1 -39.915 17.943 24 24 0 1 0 39.83-19.886z" fill="#3f3f3f"/><path d="m359.915 246.057c.051.641.085 1.288.085 1.943a23.983 23.983 0 0 1 -39.915 17.943 24 24 0 1 0 39.83-19.886z" fill="#3f3f3f"/><circle cx="160" cy="256" fill="#fff" r="8"/><circle cx="336" cy="256" fill="#fff" r="8"/><path d="m96 272a8 8 0 1 1 8-8 8.011 8.011 0 0 1 -8 8zm8-64v23.716a8.189 8.189 0 0 1 -7.45 8.265 8.009 8.009 0 0 1 -8.55-7.981v-8a16 16 0 0 1 16-16z" fill="#f4c2b5"/><path d="m416 272a8 8 0 1 1 8-8 8.011 8.011 0 0 1 -8 8zm8-48v7.716a8.189 8.189 0 0 1 -7.45 8.265 8.009 8.009 0 0 1 -8.55-7.981v-24a16 16 0 0 1 16 16z" fill="#f4c2b5"/><circle cx="140" cy="300" fill="#fff5f2" r="12"/><circle cx="224" cy="80" fill="#848484" r="16"/><circle cx="268" cy="100" fill="#848484" r="12"/><circle cx="372" cy="300" fill="#fff5f2" r="12"/><g fill="#525252"><path d="m192 224h-48a8 8 0 0 1 0-16h48a8 8 0 0 1 0 16z"/><path d="m368 224h-48a8 8 0 0 1 0-16h48a8 8 0 0 1 0 16z"/><path d="m238.775 336h-38.775a24.027 24.027 0 0 1 -24-24v-5.2l48.628-21.613a28 28 0 0 1 39.372 25.588 25.254 25.254 0 0 1 -25.225 25.225z"/></g><path d="m251.258 287.3a27.992 27.992 0 0 0 -11.769-4.307 52.252 52.252 0 0 1 -51.739 45.007h-5.619a23.941 23.941 0 0 0 17.869 8h38.775a25.254 25.254 0 0 0 25.225-25.225 27.907 27.907 0 0 0 -12.742-23.475z" fill="#3f3f3f"/><path d="m312 336h-38.775a25.254 25.254 0 0 1 -25.225-25.225 28 28 0 0 1 39.372-25.587l48.628 21.612v5.2a24.027 24.027 0 0 1 -24 24z" fill="#525252"/><path d="m311.843 296.064a43.494 43.494 0 0 1 -40.664 39.846c.675.054 1.356.09 2.046.09h38.775a24.027 24.027 0 0 0 24-24v-5.2z" fill="#3f3f3f"/><circle cx="272" cy="304" fill="#848484" r="8"/></svg>