<svg height="512" viewBox="0 0 512 512" width="512" xmlns="http://www.w3.org/2000/svg"><circle cx="256" cy="256" fill="#ff9e80" r="256"/><path d="m426.4 64.974a255.094 255.094 0 0 1 21.6 103.026c0 141.385-114.615 256-256 256a255.026 255.026 0 0 1 -170.4-64.974c39.644 90.074 129.67 152.974 234.4 152.974 141.385 0 256-114.615 256-256a255.348 255.348 0 0 0 -85.6-191.026z" fill="#ff8b6c"/><path d="m352 464a96 96 0 0 0 -192 0v29.372a256.684 256.684 0 0 0 192 0z" fill="#0277bd"/><path d="m256 416a32.036 32.036 0 0 1 -32-32v-32h64v32a32.036 32.036 0 0 1 -32 32z" fill="#f4c2b5"/><path d="m348.65 97.49-2.086-1.49h-181.128l-2.086 1.49a142.022 142.022 0 0 0 -59.267 110.51h303.834a142.022 142.022 0 0 0 -59.267-110.51z" fill="#e8beb3"/><path d="m408 208h-.083v-.08a16.138 16.138 0 0 0 -6.647-12.419l-81.27-59.501h-128l-81.268 59.5a16.138 16.138 0 0 0 -6.647 12.419v.08h-.085a48 48 0 0 0 0 96h.116a68.09 68.09 0 0 0 67.884 64.001h168a68.09 68.09 0 0 0 67.884-64h.116a48 48 0 0 0 0-96z" fill="#ffe7de"/><path d="m256 168c-14.106 0-37.345-8.078-57.829-20.1-14.255-8.368-38.171-25.2-38.171-43.9 0-13.607 15.387-27.638 48.422-44.155a477.793 477.793 0 0 1 44.844-19.364l2.734-.994 2.734.994a477.793 477.793 0 0 1 44.844 19.364c33.035 16.517 48.422 30.548 48.422 44.155 0 18.7-23.916 35.532-38.171 43.9-20.484 12.022-43.723 20.1-57.829 20.1z" fill="#c97e67"/><path d="m325.871 72.308a120.152 120.152 0 0 1 -139.4 68.025c4.151 2.964 8.217 5.52 11.7 7.566 20.484 12.023 43.723 20.101 57.829 20.101s37.345-8.078 57.829-20.1c14.255-8.368 38.171-25.2 38.171-43.9 0-10.055-8.413-20.342-26.129-31.692z" fill="#c0694e"/><path d="m256 168a8 8 0 0 1 -8-8v-24a8 8 0 0 1 16 0v24a8 8 0 0 1 -8 8z" fill="#ae583e"/><path d="m259.578 40.845c-.05-.025-.1-.043-.15-.066-.077-.036-.152-.076-.229-.11s-.172-.07-.259-.1-.177-.067-.266-.1c-.065-.024-.129-.049-.195-.071-.089-.029-.181-.054-.272-.081s-.2-.054-.3-.078c-.064-.016-.128-.033-.193-.047-.086-.019-.173-.035-.26-.051s-.2-.036-.305-.051c-.077-.011-.154-.022-.232-.031s-.158-.016-.238-.022-.186-.016-.279-.02-.2-.008-.3-.01c-.036 0-.071-.005-.107-.005s-.084.006-.127.006c-.071 0-.141 0-.211.006-.118.005-.235.013-.353.023-.09.008-.178.017-.267.028l-.118.015c-.127.018-.254.037-.382.061s-.258.053-.386.083-.239.058-.358.092c-.151.043-.3.092-.444.144-.1.034-.194.068-.29.106-.161.063-.319.134-.474.207-.056.027-.113.046-.168.074-1.48.741-36.415 18.719-36.415 63.153v16a8 8 0 0 0 16 0v-16c0-19.379 8.444-32.264 16-39.918v39.918a8 8 0 0 0 16 0v-39.918c7.556 7.653 16 20.539 16 39.918v16a8 8 0 0 0 16 0v-16c0-44.434-34.935-62.412-36.422-63.155z" fill="#ae583e"/><path d="m325.1 397.427a136.169 136.169 0 0 1 -165.1 76.59v19.355a256.684 256.684 0 0 0 192 0v-29.372a95.671 95.671 0 0 0 -26.9-66.573z" fill="#0469bc"/><circle cx="204" cy="412" fill="#4baee0" r="12"/><path d="m208 440a8 8 0 0 0 -8 8v57.84q7.913 1.766 16 3.042v-60.882a8 8 0 0 0 -8-8z" fill="#01579b"/><path d="m304 440a8 8 0 0 0 -8 8v60.882q8.088-1.269 16-3.042v-57.84a8 8 0 0 0 -8-8z" fill="#01579b"/><path d="m408 208v-3.49c-35.837 95.509-127.973 163.49-236 163.49h168a68.089 68.089 0 0 0 67.884-64h.116a48 48 0 0 0 0-96z" fill="#f9d8cd"/><circle cx="160" cy="256" fill="#fff" r="8"/><path d="m96 272a8 8 0 1 1 8-8 8.011 8.011 0 0 1 -8 8zm8-64v23.716a8.189 8.189 0 0 1 -7.45 8.265 8.009 8.009 0 0 1 -8.55-7.981v-8a16 16 0 0 1 16-16z" fill="#f4c2b5"/><path d="m416 272a8 8 0 1 1 8-8 8.011 8.011 0 0 1 -8 8zm8-48v7.716a8.189 8.189 0 0 1 -7.45 8.265 8.009 8.009 0 0 1 -8.55-7.981v-24a16 16 0 0 1 16 16z" fill="#f4c2b5"/><circle cx="140" cy="300" fill="#fff5f2" r="12"/><circle cx="372" cy="300" fill="#fff5f2" r="12"/><path d="m238.775 336h-38.775a24.027 24.027 0 0 1 -24-24v-5.2l48.628-21.613a28 28 0 0 1 39.372 25.588 25.254 25.254 0 0 1 -25.225 25.225z" fill="#c97e67"/><path d="m251.258 287.3a27.992 27.992 0 0 0 -11.769-4.307 52.252 52.252 0 0 1 -51.739 45.007h-5.619a23.941 23.941 0 0 0 17.869 8h38.775a25.254 25.254 0 0 0 25.225-25.225 27.907 27.907 0 0 0 -12.742-23.475z" fill="#c0694e"/><path d="m312 336h-38.775a25.254 25.254 0 0 1 -25.225-25.225 28 28 0 0 1 39.372-25.587l48.628 21.612v5.2a24.027 24.027 0 0 1 -24 24z" fill="#c97e67"/><path d="m311.843 296.064a43.494 43.494 0 0 1 -40.664 39.846c.675.054 1.356.09 2.046.09h38.775a24.027 24.027 0 0 0 24-24v-5.2z" fill="#c0694e"/><circle cx="272" cy="304" fill="#e8beb3" r="8"/><circle cx="188" cy="100" fill="#e8beb3" r="12"/><circle cx="168" cy="264" fill="#525252" r="24"/><circle cx="344" cy="264" fill="#525252" r="24"/><path d="m183.915 246.057c.051.641.085 1.288.085 1.943a23.983 23.983 0 0 1 -39.915 17.943 24 24 0 1 0 39.83-19.886z" fill="#3f3f3f"/><path d="m359.915 246.057c.051.641.085 1.288.085 1.943a23.983 23.983 0 0 1 -39.915 17.943 24 24 0 1 0 39.83-19.886z" fill="#3f3f3f"/><circle cx="160" cy="256" fill="#fff" r="8"/><circle cx="336" cy="256" fill="#fff" r="8"/><g fill="#525252"><path d="m192 224h-48a8 8 0 0 1 0-16h48a8 8 0 0 1 0 16z"/><path d="m368 224h-48a8 8 0 0 1 0-16h48a8 8 0 0 1 0 16z"/></g></svg>