<svg height="512" viewBox="0 0 512 512" width="512" xmlns="http://www.w3.org/2000/svg"><circle cx="256" cy="256" fill="#79d1c9" r="256"/><path d="m426.4 64.974a255.094 255.094 0 0 1 21.6 103.026c0 141.385-114.615 256-256 256a255.026 255.026 0 0 1 -170.4-64.974c39.644 90.074 129.67 152.974 234.4 152.974 141.385 0 256-114.615 256-256a255.348 255.348 0 0 0 -85.6-191.026z" fill="#5fc4b8"/><path d="m352 464a96 96 0 0 0 -192 0v29.372a256.684 256.684 0 0 0 192 0z" fill="#0277bd"/><path d="m325.1 397.427a136.169 136.169 0 0 1 -165.1 76.59v19.355a256.684 256.684 0 0 0 192 0v-29.372a95.671 95.671 0 0 0 -26.9-66.573z" fill="#0469bc"/><path d="m208 440a8 8 0 0 0 -8 8v57.84q7.913 1.766 16 3.042v-60.882a8 8 0 0 0 -8-8z" fill="#01579b"/><path d="m304 440a8 8 0 0 0 -8 8v60.882q8.088-1.269 16-3.042v-57.84a8 8 0 0 0 -8-8z" fill="#01579b"/><path d="m256 416a32.036 32.036 0 0 1 -32-32v-32h64v32a32.036 32.036 0 0 1 -32 32z" fill="#f4c2b5"/><path d="m120 304h-16a48 48 0 0 1 0-96h16z" fill="#f9d8cd"/><path d="m56.676 263.983a48.069 48.069 0 0 0 47.324 40.017h16v-79.028a71.971 71.971 0 0 1 -63.324 39.011z" fill="#f4c2b5"/><path d="m408 304h-16v-96h16a48 48 0 0 1 0 96z" fill="#f9d8cd"/><path d="m442.01 222.163a100.325 100.325 0 0 1 -50.01 55.655v26.182h16a47.975 47.975 0 0 0 34.01-81.837z" fill="#f4c2b5"/><path d="m314 432h-116a94.106 94.106 0 0 1 -94-94v-130h304v130a94.106 94.106 0 0 1 -94 94z" fill="#c97e67"/><path d="m399.949 208c.027 1.331.051 2.663.051 4 0 108.248-87.752 196-196 196a195.213 195.213 0 0 1 -85.219-19.45 94.008 94.008 0 0 0 79.219 43.45h116a94.106 94.106 0 0 0 94-94v-130z" fill="#c0694e"/><path d="m297.005 344h-82.005a87.084 87.084 0 0 1 -61.983-25.674 166.244 166.244 0 0 1 -49.017-118.326v-37a42 42 0 0 1 42-42h220a42 42 0 0 1 42 42v37a166.244 166.244 0 0 1 -49.012 118.326 87.084 87.084 0 0 1 -61.983 25.674z" fill="#ffe7de"/><g fill="#ae583e"><path d="m216 392v40h-16v-40a8 8 0 0 1 16 0z"/><path d="m248 368v64h-16v-64a8 8 0 0 1 16 0z"/><path d="m280 368v64h-16v-64a8 8 0 0 1 16 0z"/><path d="m344 360v67.09a92.68 92.68 0 0 1 -16 3.87v-70.96a8 8 0 0 1 16 0z"/><path d="m184 360v70.96a92.68 92.68 0 0 1 -16-3.87v-67.09a8 8 0 0 1 16 0z"/><path d="m312 392v40h-16v-40a8 8 0 0 1 16 0z"/><path d="m376 344v64.59a93.28 93.28 0 0 1 -16 11.36v-75.95a8 8 0 0 1 16 0z"/><path d="m152 344v75.95a93.28 93.28 0 0 1 -16-11.36v-64.59a8 8 0 0 1 16 0z"/></g><path d="m367.915 121.048a164.015 164.015 0 0 1 -255.744 130.852 166.591 166.591 0 0 0 40.841 66.428 87.084 87.084 0 0 0 61.988 25.672h82.01a87.084 87.084 0 0 0 61.983-25.674 166.244 166.244 0 0 0 49.007-118.326v-37a42 42 0 0 0 -40.085-41.952z" fill="#f9d8cd"/><path d="m408 176h-8a85.582 85.582 0 0 1 -73.871-42.978c-16.512 14.078-56.823 42.978-109.603 42.978h-138.772l2.485-9.94c.349-1.4 8.9-34.509 40.1-65.717 18.276-18.273 40.568-32.114 66.261-41.143 31.78-11.165 68.834-14.925 110.127-11.169l1.547.14c38.346 3.469 109.726 9.921 109.726 119.829z" fill="#c97e67"/><path d="m300.445 89.356a8 8 0 0 0 -11.094 2.2c-.116.172-11.843 17.442-34.589 34.426-23.994 17.915-50.611 28.814-79.37 32.553a190.027 190.027 0 0 0 33.482-20.137c24.741-18.607 37.262-37.175 37.782-37.956a8 8 0 0 0 -13.305-8.886c-.116.172-11.843 17.442-34.589 34.426-30.235 22.571-64.632 34.018-102.236 34.018a8 8 0 0 0 0 16h56a185.752 185.752 0 0 0 112.348-37.606c24.741-18.607 37.262-37.175 37.782-37.956a8 8 0 0 0 -2.211-11.082z" fill="#ae583e"/><path d="m382.605 81.791a116.45 116.45 0 0 1 -52.843 57.016 85.615 85.615 0 0 0 70.238 37.193h8v-8c0-41.949-10.4-68.816-25.395-86.209z" fill="#c0694e"/><circle cx="160" cy="104" fill="#e8beb3" r="16"/><circle cx="124" cy="132" fill="#e8beb3" r="12"/><path d="m256 312.027a51.2 51.2 0 0 1 -28.437-8.637 8 8 0 1 1 8.875-13.313 35.176 35.176 0 0 0 39.125 0 8 8 0 0 1 8.875 13.313 51.2 51.2 0 0 1 -28.438 8.637z" fill="#f4c2b5"/><path d="m272 224h-32a8 8 0 0 1 0-16h32a8 8 0 0 1 0 16z" fill="#262626"/><path d="m408 224h-40a8 8 0 0 1 0-16h40a8 8 0 0 1 0 16z" fill="#262626"/><path d="m144 224h-40a8 8 0 0 1 0-16h40a8 8 0 0 1 0 16z" fill="#262626"/><path d="m217.875 272h-41.875a40.045 40.045 0 0 1 -40-40v-24a16.019 16.019 0 0 1 16-16h69.875a24 24 0 0 1 23.815 26.977l-4 32a24.038 24.038 0 0 1 -23.815 21.023z" fill="#525252"/><path d="m336 272h-41.875a24.038 24.038 0 0 1 -23.815-21.023l-4-32a24 24 0 0 1 23.815-26.977h69.875a16.019 16.019 0 0 1 16 16v24a40.045 40.045 0 0 1 -40 40z" fill="#525252"/><path d="m239.868 200.117a24.006 24.006 0 0 0 -16-8.026 67.97 67.97 0 0 1 -80.726 62.678 39.976 39.976 0 0 0 32.858 17.231h41.875a24.038 24.038 0 0 0 23.815-21.023l4-32a24.013 24.013 0 0 0 -5.822-18.86z" fill="#3f3f3f"/><path d="m360 192h-8.127a67.973 67.973 0 0 1 -80.755 62.765 24.034 24.034 0 0 0 23.007 17.235h41.875a40.045 40.045 0 0 0 40-40v-24a16.019 16.019 0 0 0 -16-16z" fill="#3f3f3f"/><circle cx="156" cy="212" fill="#848484" r="12"/><circle cx="292" cy="212" fill="#848484" r="12"/></svg>