<svg height="512" viewBox="0 0 512 512" width="512" xmlns="http://www.w3.org/2000/svg"><circle cx="256" cy="256" fill="#79d1c9" r="256"/><path d="m426.4 64.974a255.094 255.094 0 0 1 21.6 103.026c0 141.385-114.615 256-256 256a255.026 255.026 0 0 1 -170.4-64.974c39.644 90.074 129.67 152.974 234.4 152.974 141.385 0 256-114.615 256-256a255.348 255.348 0 0 0 -85.6-191.026z" fill="#5fc4b8"/><path d="m352 464a96 96 0 0 0 -192 0v29.372a256.684 256.684 0 0 0 192 0z" fill="#e56161"/><path d="m256 416a32.036 32.036 0 0 1 -32-32v-32h64v32a32.036 32.036 0 0 1 -32 32z" fill="#f4c2b5"/><path d="m325.1 397.427a136.169 136.169 0 0 1 -165.1 76.59v19.355a256.684 256.684 0 0 0 192 0v-29.372a95.671 95.671 0 0 0 -26.9-66.573z" fill="#d65858"/><circle cx="204" cy="412" fill="#f29c9c" r="12"/><path d="m208 440a8 8 0 0 0 -8 8v57.84q7.913 1.766 16 3.042v-60.882a8 8 0 0 0 -8-8z" fill="#bf4b4b"/><path d="m304 440a8 8 0 0 0 -8 8v60.882q8.088-1.269 16-3.042v-57.84a8 8 0 0 0 -8-8z" fill="#bf4b4b"/><path d="m340 368h-168a68.09 68.09 0 0 1 -67.884-64h-.116a48 48 0 0 1 0-96h.039c.122-5.639.532-11.332 1.222-16.972l.86-7.028h13.879a14.179 14.179 0 0 0 13.47-9.709 55.929 55.929 0 0 1 53.13-38.291h138.8a55.929 55.929 0 0 1 53.127 38.292 14.18 14.18 0 0 0 13.473 9.708h14.9l.574 7.38c.349 4.5.527 8.974.527 13.306v3.314a48 48 0 0 1 0 96h-.116a68.089 68.089 0 0 1 -67.885 64z" fill="#ffe7de"/><path d="m408.145 200h-16.145a30.16 30.16 0 0 1 -28.649-20.648 39.948 39.948 0 0 0 -37.951-27.352h-138.8a39.95 39.95 0 0 0 -37.948 27.352 30.16 30.16 0 0 1 -28.652 20.648h-15.837l1.1-8.972c4.574-37.368 21.95-73.356 48.927-101.336 4.343-4.5 9.19-11.2 7.616-17.492l-4.052-16.2h10.246c13.295 0 24.787 4.909 33.419 13.822a76.286 76.286 0 0 0 -8.1-17.424l-8.124-12.386 14.805-.012c31.076 0 58.956 14 73.584 35.586 7.937-13.147 20.632-19.586 38.416-19.586h8v17.5c10.5-7.1 23.919-9.5 33-9.5h10.246l-2.485 9.94c-1.811 7.244 2.586 14.5 6.593 19.307a173.665 173.665 0 0 1 40.119 98.132z" fill="#e56161"/><path d="m408 208v-3.49c-35.837 95.509-127.973 163.49-236 163.49h168a68.089 68.089 0 0 0 67.884-64h.116a48 48 0 0 0 0-96z" fill="#f9d8cd"/><path d="m96 272a8 8 0 1 1 8-8 8.011 8.011 0 0 1 -8 8zm8-64v23.716a8.189 8.189 0 0 1 -7.45 8.265 8.009 8.009 0 0 1 -8.55-7.981v-8a16 16 0 0 1 16-16z" fill="#f4c2b5"/><path d="m416 272a8 8 0 1 1 8-8 8.011 8.011 0 0 1 -8 8zm8-48v7.716a8.189 8.189 0 0 1 -7.45 8.265 8.009 8.009 0 0 1 -8.55-7.981v-24a16 16 0 0 1 16 16z" fill="#f4c2b5"/><circle cx="140" cy="300" fill="#fff5f2" r="12"/><circle cx="192" cy="96" fill="#f29c9c" r="16"/><circle cx="228" cy="116" fill="#f29c9c" r="12"/><circle cx="372" cy="300" fill="#fff5f2" r="12"/><g fill="#262626"><path d="m272 224h-32a8 8 0 0 1 0-16h32a8 8 0 0 1 0 16z"/><path d="m408 224h-40a8 8 0 0 1 0-16h40a8 8 0 0 1 0 16z"/><path d="m144 224h-40a8 8 0 0 1 0-16h40a8 8 0 0 1 0 16z"/></g><path d="m217.875 272h-41.875a40.045 40.045 0 0 1 -40-40v-24a16.019 16.019 0 0 1 16-16h69.875a24 24 0 0 1 23.815 26.977l-4 32a24.038 24.038 0 0 1 -23.815 21.023z" fill="#525252"/><path d="m336 272h-41.875a24.038 24.038 0 0 1 -23.815-21.023l-4-32a24 24 0 0 1 23.815-26.977h69.875a16.019 16.019 0 0 1 16 16v24a40.045 40.045 0 0 1 -40 40z" fill="#525252"/><path d="m239.868 200.117a24.006 24.006 0 0 0 -16-8.026 67.97 67.97 0 0 1 -80.726 62.678 39.976 39.976 0 0 0 32.858 17.231h41.875a24.038 24.038 0 0 0 23.815-21.023l4-32a24.013 24.013 0 0 0 -5.822-18.86z" fill="#3f3f3f"/><path d="m360 192h-8.127a67.973 67.973 0 0 1 -80.755 62.765 24.034 24.034 0 0 0 23.007 17.235h41.875a40.045 40.045 0 0 0 40-40v-24a16.019 16.019 0 0 0 -16-16z" fill="#3f3f3f"/><circle cx="156" cy="212" fill="#848484" r="12"/><circle cx="292" cy="212" fill="#848484" r="12"/><path d="m238.775 336h-38.775a24.027 24.027 0 0 1 -24-24v-5.2l48.628-21.613a28 28 0 0 1 39.372 25.588 25.254 25.254 0 0 1 -25.225 25.225z" fill="#525252"/><path d="m251.258 287.3a27.992 27.992 0 0 0 -11.769-4.307 52.252 52.252 0 0 1 -51.739 45.007h-5.619a23.941 23.941 0 0 0 17.869 8h38.775a25.254 25.254 0 0 0 25.225-25.225 27.907 27.907 0 0 0 -12.742-23.475z" fill="#3f3f3f"/><path d="m312 336h-38.775a25.254 25.254 0 0 1 -25.225-25.225 28 28 0 0 1 39.372-25.587l48.628 21.612v5.2a24.027 24.027 0 0 1 -24 24z" fill="#525252"/><path d="m311.843 296.064a43.494 43.494 0 0 1 -40.664 39.846c.675.054 1.356.09 2.046.09h38.775a24.027 24.027 0 0 0 24-24v-5.2z" fill="#3f3f3f"/><circle cx="272" cy="304" fill="#848484" r="8"/><path d="m407.473 191.379a173.665 173.665 0 0 0 -40.119-98.132c-4.007-4.809-8.4-12.063-6.593-19.307l2.485-9.94h-10.246a62.636 62.636 0 0 0 -8.987.693 136.042 136.042 0 0 1 -127.013 87.307h108.4a39.948 39.948 0 0 1 37.948 27.352 30.16 30.16 0 0 0 28.652 20.648h16.145z" fill="#d65858"/></svg>